<?xml version="1.0" encoding="utf-8"?>
<!-- Generator: Adobe Illustrator 23.1.1, SVG Export Plug-In . SVG Version: 6.00 Build 0)  -->
<svg version="1.1" id="Ebene_1" xmlns="http://www.w3.org/2000/svg" xmlns:xlink="http://www.w3.org/1999/xlink" x="0px" y="0px"
	 viewBox="0 0 493.5 902.2" style="enable-background:new 0 0 493.5 902.2;" xml:space="preserve">
<g id="mIYohe_1_">
	<g>
		<path d="M81.1,547.9c-0.2,2-0.6,3.3-0.4,4.5c2.2,14.8,0.7,29.4-2,43.9c-1.5,7.9-6,14.4-9.1,21.5c-0.8,1.9-2,3.7-3.3,6.3
			c-1.4-1.3-2.7-2.2-3.5-3.4c-3.7-6.2-6.4-12.8-7.5-19.9c-1.5-9.8-3.3-19.6-4.1-29.5c-0.8-9.2-0.5-18.5-0.6-27.8
			c0-3.8,0.3-7.6,0.3-11.5c0-1.2-0.5-2.5-0.8-3.8c-6.1,1.7-11.9,3.2-17.6,4.8c-4.5,1.3-8.8,2.9-13.3,4.1c-1.7,0.5-3.6,0.6-5.4,0.3
			c-3-0.4-4.3-2.4-3.4-5.4c4-13.4,8.8-26.3,18.3-37.2c7.6-8.7,15.6-16.7,24.5-24.1c0.7-0.6,1.2-1.5,2-2.5c-0.7-0.5-1.2-1.1-1.7-1.2
			c-9.9-1.6-18.5-6.3-26.6-11.8c-4.1-2.8-4.2-5.1-0.4-8.3c8.1-6.7,17.6-10.6,27.9-12.3c0.6-0.1,1.3-0.2,2.5-0.4
			c-2.2-3.1-4.1-5.9-6.3-8.5c-5-5.9-6.7-12.9-6.9-20.3c-0.1-4.4,0.8-8.9,0.9-13.3c0-1.4-0.6-3.2-1.6-4.3c-1.7-1.8-3.7-3.5-5.9-4.5
			c-5-2.4-8.1-6.8-11.6-10.7c-4.2-4.6-5.7-10-4.9-16.1c0.2-1.3,0.1-2.7,0.5-4c0.5-1.9-0.1-3-1.7-4.1c-8.8-6.3-14.2-15.3-18.1-25.1
			c-1.9-4.8-1.2-10.1,0.7-14.7c3.1-7.5,7.1-14.7,14.3-19.3c2.2-1.4,4.7-2.3,7.2-3.4c1.9-0.8,4-1.5,6.1-2.3
			c-0.7-5.2-1.2-10.2-1.9-15.1c-1.4-10.5,1.6-19,10.6-25.1c0.7-0.5,1.3-1,2-1.5c3.7-2.8,3.9-2.9,1.6-6.8c-2.8-4.8-2.8-10.1-3.4-15.4
			c-1.1-9.9,0.9-19.3,5.5-27.9c1.6-3.1,5.1-5.7,8.3-7.4c4.3-2.4,6.4-4.9,6.7-10.2c0.4-7.2,4.3-13.4,8.5-19.3
			c4.1-5.7,9.6-9.6,15-13.7c1.5-1.2,3.5-2.2,5.4-2.4c9.1-0.9,18.3-2,26.9,2.5c7.2,3.7,13.2,8.8,17.1,16.1c4,7.4,8.1,14.8,12.1,22
			c1-4.9,4.1-9,7.9-12.4c3.9-3.6,8.3-6.6,12.3-10.2c1-0.9,1.7-2.7,1.9-4.1c0.2-1.8,0.1-3.7-0.5-5.4c-3.8-10.3-1-21.1-2.2-31.6
			c-0.6-5.5,0.7-11.2,1.3-16.8c0.8-7.1,0.4-14.3,2.8-21.1c1.2-3.6,2.1-7.3,3.3-11c2.3-7.1,4.5-14.2,7.1-21.2
			c1.7-4.4,4.8-7.6,8.6-10.6c7.2-5.6,15.2-8,24-8.3c6.7-0.3,13.3,0.1,18.5,5.5c1,1,3,1.6,4.5,1.5c14.6-1.3,25.9,5.9,36.4,14.4
			c6.7,5.4,12.8,11.5,19.3,17.2c1.7,1.5,3.8,2.5,5.7,3.8c0.9,0.6,1.7,1.4,2.5,2.2c1.1,1.1,2.1,2.4,3.2,3.6c3.3-1.4,3.3-3.9,3.4-6.4
			c0.2-5.3,0.7-10.6,4.5-14.9c2.4-2.7,3.6-2.6,5.8,0.3c2.6,3.4,5.8,6.4,8.3,9.8c3.7,5.1,7.1,10.4,10.5,15.6
			c2.9,4.4,5.6,8.8,8.8,13.9c1.5-3.3,3.2-5.7,3.6-8.2c1.6-10.1,6.4-19,10.1-28.3c3.4-8.3,9.1-15.7,13.8-23.5
			c1.3-2.1,2.6-4.2,3.9-6.4c3-5.2,7.3-5.9,11.8-1.8c1,0.9,2,1.9,2.6,3c4.9,9.3,8.6,18.9,8.6,29.7c0.1,12.7-0.4,25.2-4.6,37.3
			c-0.2,0.6-0.2,1.3-0.3,2.5c3.5-3.3,7.5-5.1,8.6-10.1c0.4-2.1,3.9-3.4,5.7-5.3c9-9.9,17.8-20,26.8-30c3-3.3,6.2-6.4,9.2-9.8
			c7.2-8.3,15-16.2,22.7-24.1C469,12.8,474,7.5,479.3,2.5c1.5-1.4,4-2.7,6-2.5c2.9,0.3,3.4,3.3,3.5,5.9c0.7,18.4,1.4,36.8,2.1,55.2
			c0.3,8.1,0.8,16.1,0.6,24.2c-0.3,10.9-0.8,21.8-2,32.7c-1.2,11-1.6,22.2-0.6,33.2c0.9,11.1,0.5,22.2,0.9,33.3
			c0.4,11,0.3,22.1,0.4,33.1c0.1,8.1,0.2,16.2,0.1,24.2c0,5.3-0.6,10.6-0.6,15.9c0.1,9.4,0.4,18.8,0.7,28.2
			c0.2,5.1,0.6,10.2,0.7,15.4c0.2,8.5,0,16.9,0.3,25.4c0.2,6.3,0.7,12.5,0.9,18.8c0.2,5.8,0.7,11.6,0.1,17.4
			c-0.6,6.6-0.7,13.2-0.2,19.8c0.7,9.4,0.4,18.9,0.5,28.4c0.1,7-0.2,13.9,0.1,20.9c0.5,14.9,1.1,29.8-0.2,44.8
			c-0.7,8.7,0.1,17.6,0.1,26.4c0,7.5-0.6,14.9-0.5,22.4c0.2,8.4-0.8,16.8,0.5,25.3c1.1,7.6,0.1,15.6,0,23.4c0,4,0.2,7.9,0.1,11.9
			c-0.5,15.6-1.2,31.1-1.6,46.7c-0.2,6.9,0.1,13.8,0.1,20.8c0,5-0.3,10-0.3,14.9c0,4.6,0.2,9.2,0.1,13.8
			c-0.2,11.9-0.6,23.9-0.9,35.8c-0.2,6.6-0.4,13.2-0.6,19.8c-0.3,7.6-0.7,15.2-1.1,22.8c-0.5,8.8-0.9,17.6-1.5,26.3
			c-0.4,5.3-1.1,10.6-1.5,15.9c-1.3,16.7-2.6,33.4-3.9,50.1c0,0.3-0.1,0.7-0.1,1c1.5,12.7-1.8,25-3.3,37.4c-0.3,2-0.2,4-0.4,6
			c-0.6,4.9-3.6,6.4-7.4,3.4c-8.2-6.5-16-13.4-24.3-19.8c-8.1-6.3-16.7-11.9-25-18.1c-5.5-4.2-10.7-8.9-16.1-13.2
			c-2.3-1.8-5.1-3.1-7.4-4.8c-3.2-2.4-6.1-5.1-9.2-7.5c-8.4-6.8-17-13.3-25.2-20.3c-8.9-7.5-17.3-15.3-26.2-22.9
			c-5.6-4.7-11.4-9.1-17.1-13.6c-4.1-3.3-8.3-6.5-12.4-9.9c-9.1-7.5-18.1-15-27.1-22.6c-5.6-4.7-10.9-9.7-16.4-14.5
			c-2.4-2-5-3.8-7.3-5.9c-4.5-4.3-8.8-8.9-13.4-13.1c-8.3-7.6-16.8-14.9-25.1-22.5c-4.7-4.3-8.8-9.2-13.6-13.2
			c-5.1-4.3-9.6-9.1-13.6-14.4c-1.9-2.5-4.4-4.5-6.6-6.7c-0.8-0.8-1.9-1.5-2.6-2.3c-9.8-12.4-21.4-23.1-31.9-34.8
			c-6.7-7.4-12.8-15.2-19.5-22.6c-7.9-8.7-16.1-17.2-24.2-25.8c-2.8-3-5.4-6.3-8.3-9.2c-3.2-3.2-6.6-6-9.9-9
			C85.9,552.1,83.9,550.3,81.1,547.9z M387.9,394l-0.2-0.1c-0.3,1.7-0.6,3.5-1,5.5c1.1,1.2,3.4,2.9,4.6,0.7c2-3.5,4.6-3,7.4-2.3
			c0.8-1.2,1.3-2.1,1.8-2.8c3.2,0.2,4,6.7,8.4,2.4c-1.1-1.7-2.2-3.4-3.9-5.9c2.4,0.4,3.7,0.3,4.5,0.8c0.9,0.6,1.5,1.9,2.2,2.9
			c3.5-3.6,3.7-6.9-1.8-10c-1.9,1.9-3.8,4.2-6.1,5.9c-1.4,1-3.5,1.7-5.2,1.6c-1.7-0.1-2.1-1.8-1.1-3.5c1.5-2.4,2.9-4.7,4.2-6.7
			c1.4,1,2.9,2.1,4.4,3.3c1-1.9,1.3-4,2.4-4.5c1.4-0.7,3.4-0.2,5.3-0.2c0.3-2,0.5-3.7,0.8-5.6c1.4-0.3,2.7-0.6,4.4-1
			c-2.5-2.8-4.8-5.3-7.2-8c0.3-1.1,0.8-2.4,1.2-3.7c-1.6-0.9-2.9-1.7-5.3-3.1c2.7-1.2,4.3-1.9,5.8-2.6c1.1-2.1,2.1-4.1,3.2-6.1
			l-0.1,0.1c3.9-1.2,7.9-2.3,12.1-3.5c-0.4-1.4-0.8-2.3-0.9-3.2c-0.3-3.6-1.7-5.2-5.5-3.8c-0.8,0.3-2.1-0.7-4.1-1.4
			c2.4-1.3,3.6-1.9,4.7-2.5c0.4-2.1,0.7-4,1-6c0.5-0.1,0.9-0.2,1.4-0.3c0.9,1.4,1.8,2.8,2.6,4.3c1.1,2.3,2.4,4,5.4,3.1
			c2.6-0.8,5.2-1.5,7.9-2.2c1.9,4.1-2.6,4.8-4.2,7.2c1.4,2.4,2.9,4.6,4,6.9c0.3,0.8-0.4,2-0.6,3.1c-1-0.3-2.4-0.4-2.9-1.1
			c-0.7-0.9-0.8-2.4-1.3-4.4c-2.2,4.8-4.2,9.1-6.3,13.5c0.8,0.2,1.8,0.1,2.4,0.5c0.5,0.4,1,1.4,0.8,2c-0.1,0.6-1,1.6-1.5,1.6
			c-3.2,0.1-6.5-0.2-9.7-0.1c-1,0-2.6,0.3-2.9,0.9c-0.4,0.8,0.2,2.1,0.4,3.2c2.3-0.6,3.9-1.3,5.4-1.2c1.9,0.1,3.7,1.1,3.4,3.4
			c-0.3,2-1.9,1.7-3.5,1.6c-1.1-0.1-2.3,0.7-3.4,1.1c0.1,0.3,0.2,0.5,0.4,0.8c1.6,0.5,3.3,0.9,4.9,1.4c0.1,0.4,0.2,0.8,0.2,1.2
			c-1.1,0.7-2.2,1.5-3.4,2c-3.9,1.9-4.9,4.7-2.7,8.5c0.5,0.8,1.1,1.5,1.7,2.3c-1.9,2.5-1.4,6.5-5.7,6.9c-0.3,0-0.7,2.9-0.5,4.5
			c0.1,1,1.2,1.8,2.5,3.5c-2.4,0-4,0-6.1,0c2.3,3.6,0.2,6.1-2.6,9c3.8,0.2,6.8,0.3,9.8,0.5c0.1,0.3,0.1,0.7,0.2,1
			c-1.7,0.7-3.4,1.5-5.4,2.4c2,2.8,2.6,5.7,0.2,8.3c1.6,2.8,3.9,3.5,6.6,3c2.7-0.6,3.6-2.7,4-5.1c0.5-2.6,1-5.2,1.5-7.8
			c1.4-8,3.5-15.9,6.9-23.3c4-8.5,8.3-17,12.8-25.3c3-5.5,6.4-10.8,9.9-16c6.2-9.4,12.3-18.8,17.4-28.8c2.5-4.9,3.4-10.4,5.2-15.5
			c2.8-8.1,3.2-16.2,3.6-24.5c0.2-3.4,0.1-6.9-1.9-10c-2.3,0.5-3,1.3-2,3.5c2.1,4.9,1.5,5.8-4.2,7.5c-1.9-3.1-3.9-6.2-6.5-10.3
			c3.2,0.2,5.1,0.3,7.5,0.4c-2.7-2.9-0.5-4.5,1.5-5.9c-0.9-1.2-1.7-2.3-2.5-3.3c2.3-2.9,5.6,2.2,7.7-1.8c-2.9-1.3-5.6-2.5-8-3.6
			c-1.5,2.4-2.3,5.2-3.8,5.6c-3.8,1.2-4.8,3.5-4.2,8c-1.9-1.1-3.7-1.5-4.1-2.4c-0.4-1.1,0.1-2.9,0.8-4c3.1-4.3,5.5-8.9,6.7-14.1
			c0.3-1.5,2-2.6,3-3.8c0.2-1.1,0.1-2.6,0.8-3.5c1.2-1.7,2.8-3,2.6-5.6c-0.1-1.8,2.3-2.5,3.7-1.2c0.8,0.8,1.3,2.1,2,3.3
			c1.7-3.2,1.3-5.1-1.4-7.3c-2.7-2.2-2.3-6.1,0.7-7.6c0.7-0.3,1.4-0.6,2-0.8c-0.3-3.7-0.6-7-0.9-10.4c-0.3,0-0.7,0.1-1,0.1
			c0.1,1.2,0.4,2.4,0.2,3.5c-0.3,1.5-0.5,3.6-1.6,4.2c-1.1,0.7-3.1,0.1-5.6,0c1.4-2.2,2.1-3.3,3.1-4.8c-2.7-0.9-5.1-1.8-8.2-2.8
			c1.6-1.4,2.5-2.2,2.8-2.6c-0.3-1.2-0.6-2.2-0.9-3.1c1.1,0.1,2.3,0.1,3.4,0.4c1.1,0.3,2.2,1,3.3,1.3c0.3,0.1,1.3-1.6,1.1-1.8
			c-0.8-1.1-1.7-2.5-2.9-3c-2.1-0.8-4.4-1-6.4-1.3c-1.7,3.4-3.4,6.7-5.5,10.9c-0.8-3-2.4-5.6-1.7-7.4c2.3-6.1,2.4-6.5-2.3-11
			c-0.6-0.6-1-1.3-1.6-1.9c-0.1-0.1-0.4-0.2-0.4-0.2c-0.3,1.1-0.6,2.1-1.2,4.3c-1.8-2.3-3.2-3.7-4-5.3c-1.7-3.3,2-4.7,3.2-7.4
			c-3.6-0.3-6.6-0.5-10.5-0.8c0-0.6-0.1-2-0.2-3.3c-0.3-2.6-1.7-3.6-4-2.2c-2,1.2-3.7,2.8-6.2,4.8c-0.6-0.5-2-1.3-2.7-2.5
			c-0.2-0.4,1.3-2,2.1-2.9c2-2.2,4.4-4,5.8-6.5c0.4-0.7-2.1-2.9-3.1-4.5c-0.3-0.5-0.2-1.4-0.5-1.9c-0.5-0.8-1.1-1.6-1.8-2.1
			c-1.9-1.5-3.8-2.8-5.7-4.3c0.1-0.4,0.3-0.9,0.4-1.3c1.4,0.1,3-0.1,4.2,0.4c3,1.3,4.9,0.6,6.7-2.2c-1.3-1.2-2.3-2.1-3.6-3.3
			c2.5-1.6,4.6-3,6.7-4.3c2.3,0.2,3.6,3.9,6.3,1.5c-1.3-4.3-0.9-4.8,3.3-6.3c2.5-0.9,4.9-2.1,7.4-2.8c2.8-0.7,5.7-1.3,8.6-1.4
			c3.6-0.1,7.1,0.3,11.6,0.5c0.4-4.7,0.9-9.5,1.1-14.2c0-0.8-1.5-2.1-2.6-2.5c-7.7-3-15.9-2.2-23.5-0.4c-12.9,3-24.1,10.2-34.3,18.5
			c-2.7,2.2-5,4.9-7.5,7.3c-1.4,1.3-2.7,3.1-4.4,3.7c-6.2,2.3-12.4,5-18.9,6c-6.3,1-12.9,0.6-19.3,0.1c-3.5-0.3-6.9-2.2-10.3-3.5
			c-8-3-15.5-6.8-20.8-13.8c-2.1-2.8-3.9-5.7-5.8-8.6c-1.9-2.9-3.7-5.8-5.5-8.7c-1.9-3.1-3.7-6.2-5.8-9.2c-1.6-2.3-3.8-4.1-5.1-6.5
			c-3.8-6.9-8.5-12.9-14.6-17.9c-1.8-1.5-3.2-3.7-4.6-5.7c-4.5-6.1-7.6-13.2-13.7-18.1c-2.2-1.8-4-4-6-6
			c-5.6-5.6-10.6-11.8-17.8-15.7c-9.2-5-18-10.8-29.4-7.9c-3.1,0.8-6.1-0.6-8.4-3.3c-2-2.4-4.6-3.8-8-4.4
			c-5.8-1.2-11.2,0.3-16.7,1.2c-1.1,0.2-2.2,0.9-3.1,1.6c-6.4,4.7-11.5,10.6-14.1,18.3c-3.7,11-7.3,22-10.8,33.1
			c-0.4,1.2-0.4,2.6-0.4,3.9c-0.2,3.5-0.3,6.9-0.5,10.4c-0.3,4.1-0.7,8.3-0.9,12.4c-0.2,4.8,0.4,9.7-0.3,14.4
			c-1.4,8.8,1.1,17.1,2.7,25.5c0.1,0.8,1.6,1.3,2.8,2.2c-0.6-9.7-0.8-18.5-1.8-27.1c-1-8.7,0.3-17.2,1.7-25.7
			c1.4-8.4,3.5-16.5,6.4-24.5c3.3-9,6.1-18.3,13.9-24.8c1-0.8,2-1.9,3.1-2.3c8.4-2.5,16.7-5.8,25.7-3.6c8.8,2.2,18.1,2.4,26.1,7.6
			c3,2,6.9,2.7,9.7,4.9c12,9.5,21.5,21.1,28.6,34.7c6.1,11.9,8.1,25.2,11.1,38c1.2,4.9,0.4,10.3,1.3,15.4c1.8,10.4,4.1,15.9,15.1,16
			c8,0.1,14,4.4,17.4,11.4c2.5,5.1,6.3,6.9,11.4,7.2c1.8,0.1,3.7,0.1,5.4,0.7c1.2,0.4,2.1,1.7,3.2,2.7c-1,0.9-1.8,2.3-3,2.7
			c-3,1.1-6.1,1.5-9.1,2.6c-6.9,2.5-13.5,5.7-18.4,11.3c-4.4,5-9.9,7.6-16,9.5c-4.5,1.4-8.8,1.2-13.1-0.8c-2.1-1-4.2-2.4-6.4-2.6
			c-2.3-0.2-4.7,0.8-7.1,1.2c-1.3-1.7-1.3-3.5,0.4-4.8c2.1-1.8,4.5-2.8,7.4-2c3.6,1.1,7.2,2.1,11.2,3.2c-0.1-1.4-0.4-2.8-0.2-4.1
			c0.1-0.5,1.1-1.3,1.7-1.4c0.5,0,1.4,0.8,1.5,1.4c0.6,2.8,0.5,2.8,2.9,3.2c1.5-4.4-3.1-5.7-4.4-8.2c1.9-1,4.1-1.5,4.7-2.7
			c1.5-3.4,3.8-5.3,7.3-6.1c0.7-0.2,1.3-0.9,1.9-1.4c-0.5-1.4-1-2.6-1.4-3.7c6.4-3.3,6.4-3.3,5.9-8.6c-2.1,1.1-4.2,1.6-5.4,3
			c-2.9,3.1-5.2,6.7-8,9.9c-0.7,0.9-2.5,1.9-3.1,1.6c-1.1-0.6-2.7-2.8-2.4-3.2c1.8-2.5,0-4.8-0.1-7.1c0-0.2,0.5-0.4,1-0.9
			c1,0.9,2,1.8,3.1,2.8c3.2-2.7,6.1-5.3,8.8-7.6c-1.7-7-9.1-6.1-12.3-10.4c-2.1-2.7-4.7,1-7.2-1.3c1.3-1.4,2.6-2.7,3.2-3.4
			c-0.6-4-1.2-7.5-1.6-11c-0.4-4.1,0-8.3-0.9-12.3c-2-9-4.6-17.9-6.9-26.9c-0.5-1.8-0.7-3.6-1.5-5.2c-2.8-5.4-5.5-11-8.9-16.1
			c-2.6-3.8-4.5-8.8-9.3-8.7c-3.5-4.6-6.5-8.6-8.7-11.6c-2.8-0.2-4.6-0.4-6.3-0.5c-0.8-0.1-1.9-0.3-2.3,0.1
			c-2.7,2.4-6.1,1.3-9.1,1.6c-1.5,0.2-3.2-1.2-4.7-1.9c0.7-1.4,1.2-2.9,2-4.2c0.6-0.9,1.6-1.6,3.1-2.9c-4.5-1.1-5.9,1.9-8.1,3.4
			c-3.5,2.3,1,5-0.1,7.5c-1.4-0.2-3.1-0.9-3.6-0.4c-2.5,2.3-4.9,1.2-7.4,0.2c-4.5-1.7-8.2-0.6-11.6,2.7c-0.8,0.8-2.3,0.8-3.4,1.2
			c-1,0.4-2.8,0.8-2.8,1.2c0,1.2,0.4,2.7,1.2,3.5c0.9,1,2.4,1.3,3.7,2c0.4,0.4,0.7,0.8,1.1,1.2c-4.7-0.6-3.6,2.6-4.4,4.6
			c-9,0.2-7.1,6.8-6.9,12.5c-1.7-0.4-2.8-0.6-4-0.9c-0.2,0.3-0.4,0.6-0.6,0.8c2.3,2.6,4.5,5.1,7.1,8c-0.6-0.1-7-1.3-7.1-1.4
			c-0.5,1.7-1,3.5-1.7,5.6c-4.5-6.4-4.5-6.4,0.1-10.6c-1.5-0.8-2.8-2.1-4.1-2.1c-2.4,0.1-2.8,2.7-2.5,4.2c0.6,3.1-0.8,4.2-3.2,5.2
			c-1,0.4-1.8,1.3-2.3,1.7c0.3,2.2,1.4,4.5,0.7,5.5c-2.9,3.9-2.5,7.2,1.1,10.5c-5.6,2.7-3.2,6.9-3.3,11c1.8-0.2,3.2-0.3,5.6-0.6
			c-2.1,2-3.7,3.2-4.9,4.7c-1.1,1.4,0.9,10.7,2.2,12.2c3.5,3.9,7.5,6.8,12.3,7.2c0.7,2.3,0.9,4.5,2,5.7c2.8,3.1,4.8,6.3,4.8,10.6
			c0,0.7,0.6,1.4,1,2.1c4.5-1.2,4.4-1.2,5.1,3.3c0.4,2.6,1.2,5.1,1.8,7.5c4.9,0.1,4.9,0.1,5,3c0.2,5.9,6.6,10.4,12.7,8.5
			c-0.6,2-1.3,3.6-1.7,5.4c-0.4,1.6-0.9,3.3-0.5,4.8c1.7,5.8,4,11.3,4.3,17.5c0,0.7,0.8,1.3,1.2,2c3.7-2.9,4.1-2.8,6.9,0.6
			c-1.7,1.2-3.5,2.3-5.1,3.6c-2,1.6-2,4.2-0.2,4.7c1.1-0.9,2.2-1.7,3.5-2.7c1.2,1.3,2.2,2.4,3.1,3.4c2-0.2,3.7-0.4,5.5-0.6
			c1.1,4.6-3.5,3.3-4.8,5.2c1.6,3.8,4.3,5.9,8.3,6.3c7.6,0.7,12.9,5.2,16.5,11.4c1.1,1.9,1.4,4.9,0.9,7.1
			c-1.6,8.2-6.7,14.4-13.3,19.2c-3.5,2.6-7.1,5.5-12,5.6c-8.4,0.2-13.8,4.7-16.9,12.3c-1.1,2.6-2.2,5.3-3.7,7.6
			c-1.8,2.8-3.9,5.7-7.7,5.4c-3.6-0.2-5.5-2.8-6.5-6c-0.1-0.4-0.6-0.8-0.9-1.2c-3.9,4.7-7.8,9.3-11.8,14.1c1,1,1.9,2,2.7,3
			c3.6,4.4,7.7,8.4,10.6,13.2c6.1,9.9,10,20.6,9.8,32.5c0,1.8-0.1,3.7,0.4,5.5c0.7,2.4,0.5,4.2-1.7,5.6c-0.6,0.4-0.9,1.3-1.3,2
			c1.2,1.4,2.2,2.7,3.8,4.7c-2.4,0-3.7,0-4.5,0c-2.8,5.1-5,10-8,14.4c-5.5,8.1-11.1,16.1-20.2,20.9c-1.5,0.8-3,2.6-3.6,4.3
			c-2.8,7.4-5.3,15-7.7,22.6c-1.3,4.1-2.2,8.3-3.1,12.4c-0.6,2.7-0.5,5.7-1.2,8.4c-2.2,8-4.1,16.1-3.6,24.5
			c0.2,3.4-0.2,6.9-0.4,10.4c-0.2,5-1,10-0.7,14.9c1.6,26.6,8.2,52.1,18.7,76.5c3.6,8.5,9.1,16.2,14,24c3.1,4.9,7,9.2,10.3,14
			c6.8,9.7,15.7,17.3,25.3,25.1c-0.2-2-0.2-3.5-0.5-4.8c-1.2-4.6-2.8-9.2-3.7-13.8c-3-14.9,8-26.4,23.4-26.5
			c6.1-0.1,12.2,0.5,18,3.1c3.3,1.5,6.9,2.5,10.4,3.4c4.2,1,8.5,2.1,12.7,2.2c8.4,0.1,15.4-4.1,21.5-9.3c5.8-5,9.8-11.2,11.7-19
			c1.4-6,3.7-12.1,8.7-16.5c7.1-6.1,14-12.5,21.1-18.7c-5-3.5-9.2-4.1-12.2-0.6c-2.2,2.5-4.1,2.2-5.8,1.3c-2.4,1.7-4.3,3.2-6.3,4.6
			c-2.3,1.6-5.2,2.8-6.7,5c-2,3-4,3.5-8.3,1.3c2.4,6.7,0.2,10.4-5.6,11.7c0.7,2.5,1.7,4.5,1.6,6.5c-0.2,3.1-2.9,2.1-5,1.9
			c-1.1,4.3-3.9,8-2.1,12.7c0.2,0.6-1.1,2.2-2,2.7c-1.7,0.8-3.7,1.3-5.6,1.6c-2.9,0.6-6,1.9-8.6,1.3c-5.6-1.4-10.9-3.6-16.2-5.9
			c-2.6-1.1-4.7-3-7.9-2.5c-0.8,0.1-2-0.5-2.6-1.1c-4.6-4.3-4.7-5-1.6-10.6c0.5-0.9,1.2-1.7,1.4-2.6c0.2-0.7-0.3-1.6-0.7-3.1
			c-1.6,2.3-2.4,4.3-3.8,5.4c-1.8,1.3-2.5,2.7-1.9,4.6c1.2,3.7-1.3,5.2-3.9,5.7c-3.6,0.7-7.5,0.5-11.4,0.7c-0.7,2.5-3.1,3.8-5.8,4.8
			c-2.4,0.9-5,2-6.9,3.7c-4,3.8-7.5,8.1-11.3,12.4c0.5,0.8,1.5,2,1.9,3.4c0.3,1.1,0.4,2.8-0.2,3.7c-3.1,4.3-9.4,3.8-11.8-0.8
			c-0.4-0.8-0.9-1.9-1.6-2.3c-4.7-2.2-6.1-6.3-6.9-10.9c0-0.3-0.3-0.6-0.4-0.8c-1.3-0.8-2.5-1.6-4.6-2.9c2.2-1.2,3.7-2.1,5.3-2.9
			c-1.3-3.7-7.8-0.6-7.9-6.2c0.9-0.8,2-1.7,3.4-2.9c-0.6-1.7-1.3-3.3-1.8-4.5c-0.8-0.2-0.9-0.3-1.1-0.3c-0.3,0-0.7,0-1,0.1
			c-3.7,1.2-4.3,0.7-3.7-3.1c0.3-1.6,0.8-3.5,0.2-4.8c-1.4-3.1-1.2-5.9,1.5-9.1c-2.2-0.7-3.9-1.1-5.4-1.8c-0.9-0.4-1.5-1.4-2.3-2.2
			c0.9-0.5,1.7-1.3,2.6-1.4c1.9-0.2,3.9-0.1,6.2-0.1c0.4,2.3,0.8,4.6,1.1,6.8c2.1,1,6,0.2,4.2,4.5c-1.6-0.6-3.1-1.2-4.6-1.7
			c-0.2,0.4-0.3,0.7-0.5,1.1c1.5,1,3,2,4.5,3.1c-1,1.5-1.9,2.9-3.5,5.4c4.3-0.8,7.3-1.4,10.9-2.1c0.5-0.7,1.3-2,1.6-2.4
			c2.6-0.6,5.7-0.8,5.8-1.4c0.3-2.3-0.4-4.8-0.8-8.2c1.1-0.5,3.1-1,4.7-2.1c1.8-1.2,3.2-2.9,5.2-4.7c0.6,2.7,1,4.7,1.5,7.2
			c-2-0.5-3.4-0.9-5.4-1.5c-0.7,1.7-2.2,3.6-1.8,4.8c0.4,1.2,2.7,2.1,4.3,2.6c3.2,0.9,6.2-0.1,8.9-1.9c1.3-0.8,2.9-1.2,4.6-1.9
			c-0.4-2.1-0.8-4.8-1.3-7.8c-1.7,0.8-2.9,1.4-4.4,2.1c-0.3-0.9-0.9-1.9-0.7-2.1c2.2-2.2,3.7-4.5,2.7-7.9c-0.1-0.2,1.6-1.3,2.3-1.1
			c0.7,0.2,1.6,1.4,1.5,2.1c0,1.2-0.7,2.3-1.6,4.8c3.7-1.2,6.4-2.2,9.2-2.8c1.1-0.3,3.2-0.2,3.4,0.3c1.5,3.6,4.2,3.2,7.1,2.6
			c0.6-0.1,1.4,0.5,2.1,0.8c-2.4,4-5.7,3.3-9.2,2c-0.8,4.2-1.6,8.1-2.4,12.4c-2.7-0.3-5.5-0.7-6.7,3.5c2.1-0.1,4.3,0.4,5.4-0.4
			c4.1-3.1,8.3-2.9,13.2-1c-0.3-5.2,4.7-3.6,7.2-5.9c-1.9-1.3-3.4-2.3-5-3.5c2.4-3.3,5.3-2.9,9.2-1.8c-2.2-3-3.8-5-5.1-6.8
			c0.9-1.8,2.3-3.4,2.1-4.7c-0.2-1.3-2.1-2.2-3.5-3.5c5.8-0.9,7.6,0.4,7.2,4.9c-0.3,4.1,3.3,7.6,7.3,6.6c3.1-0.7,6-2,9.2-3.1
			c0.2,0.2,0.8,0.8,1.4,1.3c3.5,3,3.3,3.3-0.2,6.3c-2.1,1.7-3.7,4-3.3,7.2c6.2-0.1,6.2-0.1,11.3,4.5c-0.6,2.7-2,4.6-4.9,5.5
			c-3.1,0.9-4.2,3.6-5.7,6.4c3.4-1,6.2-2.1,9.1-2.7c5.2-1.1,5.2-0.9,5.5-6.5c0.1-1.1,0.3-2.3,0.5-3.3c-2-2.6-4-5-5.9-7.5
			c-0.3-0.5-0.2-1.6,0.1-2.2c0.2-0.3,1.2-0.5,1.8-0.3c0.6,0.1,1.1,0.6,1.7,1c3.3,2,5.9,2.1,7.6,0.2c2.1-2.4,2-5-0.5-8.8
			c-0.4,1.7-0.6,3-1,4.6c-3.4-0.4-6.4-0.8-9.7-1.2c2.3-2,3.8-3.4,5.4-4.7c1.9-1.6,3.8-2.9,6.7-2.8c4.6,0.1,4.7-0.2,4.2-4.7
			c-0.5-5,2.2-7.9,7.3-7.9c1.9,0,6.4-3.3,6.1-5c-0.2-1.3-1.6-2.6-2.8-3.4c-0.8-0.5-2.3,0-3.4-0.1c-3.9-0.4-5.9-2.8-6.2-6.9
			c-0.1-0.7-1.2-1.3-1.9-2c-0.6-2.3-1.2-4.7-1.8-7.2c-0.7-0.3-1.8-0.7-2.9-1.1c-0.1,0-0.3,0.1-0.5,0.1c0.2,4.4,0.2,4.3-4,4.8
			c-1.4,0.2-2.7,1.1-4.1,1.7c0.1,0.4,0.2,0.8,0.3,1.2c2.2,0.4,4.8,1.8,6.4,1c2.4-1.1,4.5-0.7,6.7-0.6c-0.9,2.8-2.2,5.4-0.1,8.4
			c1.3,1.8,0.5,3.7-2.1,5.8c-0.8-2.3-1.6-4-2-5.7c-0.5-2.2-2.1-3.8-3.8-3c-5.2,2.5-7.6,0.9-9.8-4.2c-1.7-3.9-2.5-3.9,1.6-6.3
			c2.7-1.6,2.3-3.1,0.6-5.2c-1.1,0.6-2,1.6-2.8,1.5c-5-0.9-8.1,1.5-10.6,5.5c-1.3,2-2.9,1.6-4.6-0.7c4.6-1.5,3.1-5.5,3.5-7.7
			c3-1.2,5.7-1.7,7.7-3c3.9-2.7,6.8-2.7,10.3,0.5c0.7,0.7,1.5,1.3,2.3,1.9c2.5,1.7,3,0.2,3.2-1.5c-1.6-0.7-3.5-1-3.9-1.9
			c-0.4-0.8,0.8-2.4,1.2-3.7c0.3-0.9,0.5-1.8,0.8-3c-1,0.1-1.3,0.2-1.6,0.2c-1.5,0.2-3.1,0.3-4.6,0.5c0-1.5-0.1-3,0-4.5
			c0.3-3.4,0.3-6.6-2.1-9.7c-1.7,1.1-3,2-4,2.7c-3.4-1.9-6.5-3.7-9.5-5.4c0.2-0.3,0.3-0.7,0.5-1c1.7,0,3.3,0,4.8,0
			c-0.3-3.6-0.5-6.9-0.8-10.5c-2.5-0.2-5.4-0.8-8.1-0.5c-1.8,0.2-3.3,0.7-4.2-1.2c-1.1-2.3,1-2.7,2.3-3.6c1.8-1.1,3.8-2,3.5-4.8
			c-0.3-3-0.1-6-0.1-9.6c-2.5-2.1-3.7,2.7-6.6,2.2c-0.4-1.5-0.8-3.1-1.3-4.9c4.3,0,8.2,0,12.1,0c2.5,0,3.2-1.7,3.2-3.6
			c0.1-2.2-1.7-2.6-3.5-2.5c-1.4,0.1-2.8,0.5-4.5,0.8c2.5-5.2,4.3-10.2,3.1-16.2c4.2,1.1,2.4,5.7,5,7.3c1.9-5.5,1.8-11.7,7.1-15.5
			c0.8-0.5,1.2-1.6,1.6-2.5c1.3-2.3,2.8-4.5,0.1-7c-0.4-0.4,0.5-2.1,1.2-4.3c1.5,2.4,2.3,3.5,3.1,4.8c3.6-0.9,6.3-3.8,6.3-6.4
			c0.1-4.8,3.4-7.2,5.5-11.4c0.9,1.7,1.5,3,2.2,4.2c0.4-0.2,0.8-0.4,1.2-0.6c0.9-4.1,7.3-2.6,7.5-8c-2.3-1.2-4.5-2.4-6.9-3.7
			c-0.6,2-1,3.3-1.7,5.5c-2.4-2.1-6.3-1.1-6.8-4.4c-0.2-1.5,2.2-3.5,3.6-5.5c1.5,1.4,2.3,2.2,2.8,2.6c1.6-0.6,2.9-1.7,4.1-1.5
			c2.6,0.4,5.3,1.1,7.4,2.5c3,2,4.9,2.4,6.2-1.6c0.2-0.6,1.6-1,2.5-1.3c1-0.4,2.1-0.5,3.2-0.8c5.2-1.5,10.4-2.7,15.4,0.1
			c1.4-3.9,2.6-7.8,4.2-11.6c0.3-0.8,2.2-1.7,3-1.4c1.6,0.6,3.6,1.5,4.4,2.9c2.1,4.1,5.1,3.8,8.6,2.7c-0.1-2.5-1.8-2.8-3.4-3.7
			c-3.8-2-8.5-3.5-8.3-9.2c0-1,0.6-1.9,1-2.8c0.7,0.7,1.7,1.3,2,2.1c0.9,2.9,2.5,3.2,4.8,1.7c0.6-0.4,1.3-0.6,2.7-1.3
			c-0.7,2.9-1.2,5.2-1.7,7.4c2.1,0.7,4.3,0.6,5.1,1.7c1.8,2.2,3.6,1.2,5.3,0.7c1.2-0.4,2.2-1.5,3.4-1.9c1.1-0.4,2.3-0.3,3.5-0.4
			c-0.6,1.1-1,2.7-2,3.3c-1.3,0.9-3.2,0.9-4.7,1.5c-2.3,0.9-3,2.8-1.9,4.8c1.2,2.1,2.8,2.1,4.6,0.9c0.6-0.4,1.1-0.8,1.5-1.2
			c1.8-2.1,3.3-1.9,4.6,0.5c1.4,2.4,3.3,2.4,5.5,1.2C385.8,394.8,386.9,394.4,387.9,394z M299.3,705.2c-2.2-1.1-3.6-2-5.1-2.5
			c-11.4-4.4-23.2-8-33.7-14.5c-3-1.8-6-3.6-9.1-5.1c-12.8-6.2-24.6-13.7-34.8-23.6c-4.2-4.2-7.5-9.3-11.8-13.4
			c-8.1-7.7-13-17.6-18.7-26.9c-5.6-9.2-10.4-18.8-14.2-29c-8.1-21.7-13.7-43.7-14.7-66.8c-0.3-5.8,0.8-11.6,0.5-17.4
			c-0.3-7.7-0.5-15.3,1.5-22.7c2-7.2,1.1-14.9,3.9-21.9c1.2-2.9,1.2-6.1,2-9.2c0.7-3.2,1.6-6.3,2.6-10.1c-3.3,0.9-6,1.5-8.7,2.3
			c-10.4,3.1-19.9,0.8-28.5-5.3c-3.4-2.4-4.2-2.7-7.1,0.6c-3.2,3.6-6.1,7.4-8.9,11.3c-6.1,8.3-11.8,16.8-18.1,24.9
			c-9.9,12.9-20.1,25.5-30.4,38.1c-2.1,2.6-2,4.6,0.1,7c5,5.5,9.7,11.4,14.8,16.8c7,7.5,14.3,14.8,21.6,22
			c4.3,4.3,9.2,8.2,13.3,12.7c9.1,9.9,17.9,20.1,26.8,30.2c6.8,7.7,13.7,15.3,20.5,23c1.6,1.9,2.9,4.1,4.6,5.9
			c9.7,10.5,19.5,20.9,29.2,31.3c2.3,2.4,4.1,5.3,6.5,7.6c8.5,8,17.1,15.8,25.7,23.6c12.2,11,24.3,22,36.7,32.9
			c7.3,6.4,14.9,12.5,22.3,18.8c10.5,8.9,21,17.8,31.6,26.6c10.6,8.8,21.3,17.4,31.9,26.2c14.5,12.1,29,24.2,43.5,36.3
			c3.4,2.9,6.8,5.8,10.5,8.4c4.7,3.3,9.7,6.1,14.4,9.4c5.2,3.8,10.4,7.7,15.2,11.9c6.9,6,15.6,9.5,21.8,16.4
			c3.5,3.8,7.6,7.4,13.8,6.4c0.9-8,1.9-16,2.6-24c0.6-5.8,0.7-11.6,1.2-17.4c0.7-8.2,1.7-16.5,2.3-24.7c0.6-8.6-0.3-17.2,1.8-25.7
			c0.5-1.9,0.8-3.9,1-5.9c0.8-6.4-1.1-9.2-7.2-10.8c-8.2-2.1-16.5-3.7-24.1-7.6c-7.5-3.8-15.6-6.6-21.2-13.5c-2.5-3-5.4-4.4-9.6-3.6
			c-3,0.6-6.3,0.2-9.4-0.2c-5.8-0.7-11.5-1.6-17.2-2.5c-1.6-0.2-3.3-0.4-4.9-1c-5.5-2.2-11.2-4.2-16.5-6.9
			c-8.6-4.3-17-8.9-25.4-13.7c-2.8-1.6-5.4-2.1-8.5-1c-3.8,1.4-7.8,2.5-11.6,3.7c-0.1-0.3-0.3-0.6-0.4-0.9c2.2-1.4,4.4-2.7,6.5-4.2
			c4.9-3.6,4.7-6.6-0.7-9.5c-3.8-2.1-7.7-3.9-11.6-5.7c-5.7-2.7-11.6-3.6-17.9-2c-2.1,0.5-4.3,0.4-6.5,0.5c-0.1-0.4-0.2-0.7-0.3-1.1
			C295,708.4,296.7,707.2,299.3,705.2z M331.8,710.4c3.3,2.5,6.4,4.6,9.3,7.1c3.5,2.9,7.3,3.9,11.6,2.4c6.8-2.3,14.3-0.1,20.9-3.8
			c2.1-1.1,4.9,1.3,5.1,3.4c0.2,2.5-1.9,4.6-4.8,4.6c-1.1,0-2.3-0.3-3.4-0.6c-4.9-1.5-9.8-1.5-14.6,0.4c-1.1,0.4-2.1,1.1-3.2,1.7
			c0.9,1.1,1.6,2.6,2.7,3.1c9.2,4.6,18.4,9.1,27.7,13.4c10.4,4.8,21.6,5.5,32.7,4.4c11.5-1.1,22-5.8,32.4-10.8
			c6.6-3.2,11.5-8.3,16.9-12.9c4.3-3.6,8.5-7.3,10.5-12.9c1.3-3.4,1.3-5.5-1.1-8c-3.6-3.9-7.6-7.5-10.7-11.7
			c-3.5-4.9-8.4-9-9.3-15.5c-0.1-0.9-1.8-1.9-2.9-2.2c-8.7-2.3-15-7.5-18.4-16c-1.9-4.8-3.6-9.6-5.5-14.3
			c-5.8-14.5-7.7-29.5-4.6-44.9c0.9-4.4,1.3-8.9,2.1-13.3c0.4-2.4,0.6-5.1,1.8-7.2c4.6-7.9,6.6-16.5,8-25.4c0.9-5.5-0.4-6.8-5.7-5.4
			c-0.5,0.1-1,0.2-1.4,0.4c-7.4,3.2-14.9,6.2-22.3,9.5c-9.1,4.1-18.5,6.8-28.6,7.9c-7.7,0.8-15.3,3.1-21.5,8.4
			c-4.4,3.8-8.7,7.6-13,11.5c-5.1,4.7-8.7,10.7-10.1,17.4c-1.2,5.6-4.6,9.8-7.2,14.5c-2.7,5.1-8,7.4-12.6,10.2
			c-6.3,3.8-13.1,6.9-20.7,5.7c-6.7-1.1-13.4-2.4-19.9-4.3c-7.5-2.3-15-4.5-22.9-3.4c-5.6,0.8-10.7,3.1-13.3,8.4
			c-3.7,7.6-2.2,15.5,0.6,22.7c1.9,4.9,6.2,8.9,9.7,13.2c5.3,6.6,13,10.1,19.8,14.8c7.7,5.3,16.7,7.1,24.7,11.4
			c6.1,3.2,13,4.9,19.7,7c3.6,1.1,7.4,1.9,11.2,2.1c6.3,0.3,12.6,0.1,18.9,0c1.1,0,2.5,0.1,3.4-0.4c3.9-2.4,6.7,0.1,9.5,2
			c1.1,0.7,2.4,2.8,2.1,3.5c-0.7,1.5-2.3,3.2-3.7,3.4c-1.9,0.2-4.1-0.7-6-1.5c-2.3-0.9-4.4-2.4-6.7-3.3
			C336,706.3,333.6,707,331.8,710.4z M429.5,628.7c0.3,0,0.6,0,1,0.1c1.1-1.8,2.1-3.7,3.2-5.5c1.1-1.8,2.6-3.5,3.5-5.4
			c1.7-3.5,4.8-5.5,8.1-6.9c4.8-1.9,8.6-0.8,11.6,3.5c2.4,3.4,5.7,4.5,9.5,4.5c4,0.1,7.9-0.4,11.9-0.3c6.1,0,6.9-0.5,7.7-6.4
			c0.2-1.3,0.3-2.7,0.2-4c-0.1-4.8-0.3-9.6-0.3-14.3c0-5,0.4-9.9,0.2-14.9c-0.3-8.9-1-17.9-1.2-26.8c-0.2-10.6,0-21.1,0-31.7
			c0-7.4-0.1-14.9,0-22.3c0-14.4,0.1-28.9,0.1-43.3c0-7-0.3-13.9-0.2-20.9c0-10.8,0.4-21.5,0.3-32.3c-0.1-7.3-0.9-14.6-0.9-21.9
			c-0.1-13.9,0.2-27.8,0.1-41.7c0-3.2-0.7-6.3-1.1-9.5c-0.5-0.1-1-0.2-1.4-0.4c-1.4,1.7-3,3.4-4.2,5.2c-1.5,2.3-2.2,5.4-4.1,7.2
			c-5.4,5.2-8,12.1-12.4,18c-2.6,3.5-5.1,7-7.1,10.8c-3.9,7.3-7.4,14.8-11,22.2c-1.2,2.5-2.4,4.9-3.3,7.5c-1.9,5.4-5,10.3-5.1,16.5
			c0,7.3-0.6,14.6-1.8,21.8c-1.2,6.6-0.8,13,0.8,19.2c2.9,10.9,5.5,21.8,6.4,33.1c0.1,0.8,0.4,1.6,0.7,2.4c3.9,11.8,5.3,24,4.9,36.3
			c-0.3,9.4-0.5,18.9-4.1,27.9c-0.3,0.8-0.3,1.6-0.5,2.4c-0.9,7-3.9,13.3-6.7,19.6c-0.9,2.1-1.9,4.2-2.4,6.4
			c-0.9,4.7-1.6,9.5-2.3,14.3c-0.8,5.7-1.8,11.5-1.9,17.2C427.7,620.3,428.9,624.5,429.5,628.7z M476.5,13.3
			c-5.8,6.3-11.5,12.5-17.2,18.7c-3.7,4-7.6,7.9-11,12.1c-5.3,6.4-10,13.2-15.4,19.4c-7.7,8.9-15.7,17.4-23.6,26
			c-4.3,4.7-8.9,9-12.6,14.1c-4.4,6.1-9.8,11.1-15,16.4c-2.9,2.9-6,5.7-8.7,8.8c-4.4,5-8.4,10.2-12.7,15.2c-3.4,3.8-3.2,7.2,1.6,8.8
			c6.1,2.1,12.4,4.1,18.7,4.4c6.5,0.3,13.2-1.1,19.6-2.8c3.8-1.1,7.7-2.7,10.6-6.6c3.1-4.1,7.7-7.1,11.7-10.6
			c1.8-1.5,3.5-3.1,5.5-4.2c6.1-3.3,12-7.3,18.5-9.4c10.1-3.2,20.7-4.9,31.4-3.1c3.2,0.5,4.1-0.3,4.5-3.7c0.5-4,1.1-7.9,1.3-11.9
			c0.4-7.6,0.9-15.2,0.7-22.7c-0.2-9.4-1.1-18.8-1.7-28.2c-0.1-2.1-1-4.3-0.5-6.3c1.7-7.4-0.2-14.8,0.2-22.2
			c0.1-2.8-0.9-5.2-3.6-6.6C481.8,16.5,480,15.3,476.5,13.3z M180.7,182.7c-1.2,2.2-2.1,4.6-3.6,6.5c-3.8,4.6-8.1,8.8-11.9,13.3
			c-1.3,1.5-3,3.5-2.9,5.2c0.1,2.8,1.5,5.6,2.5,8.9c5.9-2.4,11.3-4.7,17.2-7.1c-1.6,4.6-5.5,5.2-8.5,6.4c-6.3,2.5-9.4,6.1-7.6,13.2
			c0.8,3,0.1,6.4,0.1,9.7c13.4-1.7,23.6-9.9,35.1-14.8c-2.6,2.7-5.3,5.3-8.5,6.9c-7.1,3.6-14.4,6.8-21.6,10.2c-2.9,1.4-5.6,3-6,6.6
			c-0.6,4.9-1.3,9.8-1.8,14.7c-0.3,2.7,1.5,4.2,4.1,3.2c3.5-1.4,6.9-3.1,10.4-4.6c4.4-2,8.8-3.9,13.3-5.9c0.2,0.4,0.5,0.9,0.7,1.3
			c-1.6,1.1-3,2.5-4.7,3.2c-6.5,2.9-13.2,5.5-19.7,8.4c-2.1,0.9-4.5,1.9-5.7,3.6c-2.5,3.6-3.5,7.8-3.4,12.3c0.1,2.3,1,3.3,3.2,3.5
			c2.3,0.2,4.6,0.8,6.9,1.2c-0.8,1.1-1.4,1.4-2,1.4c-3.7-0.3-6.2,2.1-8.8,4.1c-3.7,2.9-2.8,8.1,1.5,9.9c1.9,0.8,3.8,1.8,5.6,2.7
			c-0.1,0.4-0.2,0.7-0.3,1.1c-1.8-0.3-3.7-0.5-5.5-1c-1.9-0.5-3.7-0.2-4.1,1.6c-1.1,4.2-3.7,8.2-3,13.5c4.4,1.3,8.7,3.5,13.2,3.7
			c9.3,0.4,18-1.5,25.3-8.2c5.8-5.3,10.1-11.1,9.4-19.3c-0.4-4.4-1.5-8.8-2.8-13c-1.5-4.9-1.1-8,2.8-11.2c6.1-5,10.8-11.2,15.7-17.3
			c3.9-4.9,5.5-10.5,7.4-16.1c0.9-2.6,0.8-5.5,0.8-8.3c-0.2-8.2-3-15.8-5.8-23.5c-3.2-8.6-10-13.5-17.4-17.5c-6.6-3.6-7-3-5.8-10.3
			c0.1-0.7,0.3-1.3,0.4-2c1.1-7.6-5.8-18.3-13.2-19.3c-7.9-1-15.7-0.3-21.5,6.4c-1.2,1.4-2.8,2.4-3.9,3.8c-1.9,2.6-4,5.3-5.2,8.3
			c-1.7,4.1-0.8,5.8,3,8.7c2-0.9,4-1.7,6-2.6c0.3,0.2,0.7,0.4,1,0.7c-7.7,5.3-3.2,10.5-0.7,16.4
			C169.5,197.3,172.5,187.2,180.7,182.7z M171.2,343.5c-0.2,0.4-0.5,0.9-0.7,1.3c-2.7-1-5.4-2.1-8.1-3.1c-2.3-0.9-4.6-1.7-6.9-2.7
			c-2-0.9-3.7-0.4-5,1c-0.9,1-1.8,2.5-1.6,3.6c0.4,1.8,1.9,2.3,3.9,1.8c4.3-1.1,4.4-0.8,4.7,3.3c0.1,1.3,0.7,2.8,1.6,3.8
			c4.2,4.7,8.6,9.2,12.7,14c1.9,2.3,3.3,5.1,7.5,4c-2.8,2.9-2.1,5.3-0.7,8c1.4,2.6,2,5.3,1,9.1c-2.7-5.5-4.7-10.5-7.5-14.8
			c-7.3-11-16.4-20.4-28.1-26.8c-1.5-0.8-2.9-1.1-3.8,0.7c-1.7,3.2-3.4,6.4-4.9,9.7c-0.3,0.7,0.1,2,0.5,2.8c1.2,2.5,2.3,5.3,4,7.4
			c7.7,9.5,10.4,20.9,12.9,32.4c0.5,2.2-0.3,4.6-0.5,6.9c-0.5,0-1,0-1.5,0c-0.4-3-0.8-6-1.2-9.1c-0.5-3.4-0.4-7.2-4.1-8
			c-0.4-3.5-0.2-6.8-1.4-9.5c-1.9-4.4-4.5-8.4-7.1-12.5c-1.2-1.9-2.9-3.4-4.7-5.6c-4.9,6.4-12.5,10.7-8.6,20c0.1,0.1,0.1,0.3,0,0.5
			c-0.7,3.4,0.1,6.2,2.7,7.5c-1.7,3.1-3.3,5.9-5.1,9.1c-0.7-7.3,1.7-14.4-2.5-20.8c-3.7,2.3-7.1,4.5-10.5,6.5
			c-2.5,1.5-3.7,3.5-3.7,6.5c-0.1,5.5-0.2,10.9,1.9,16.1c2.9,7.2,6.3,13.9,13.9,17.4c4.3,2,6.8,1.3,9.3-2.5c0.6-0.9,1.2-1.7,1.8-2.6
			c0.7,2.1,0.6,3.9,0.8,5.7c0.5,4.5,1.3,9,5.7,11.6c4.7,2.8,9.8,4.7,15.2,2.9c4.5-1.5,9-3.3,13.2-5.7c5.2-2.9,8.2-7.5,8.4-13.8
			c0.1-1.7,0.8-3.4,1.3-5.2c1.4,0.9,1.8,1.6,2,2.3c1,4.4,2.5,5,6.3,2.6c1-0.6,1.9-1.3,2.7-2.2c7.2-8.1,13.9-16.5,17.5-26.9
			c1.9-5.5,4.3-11.3,4.1-16.8c-0.5-12.6-4.2-24.4-12.8-34.3c-2.6-3-5.6-4.9-8.9-6.8c-2-1.2-3.4-3.1-6.1-2c-2.2,0.9-5,0.7-5.6,4
			c-0.1,0.6-1.6,0.9-3.3,1.8c0.5-2.2,0.8-3.4,1-4.5c-3.9,0-7.9,0-11.8,0c-3,0-3.1,1.4-2.3,3.5c2.8,0.3,4-4,6.5-1.3
			c0.5,0.5-0.6,2.4-1,3.6C166.7,339.5,170.1,340.2,171.2,343.5z M156.4,260.1c0.5,0,1,0,1.5,0c0.3-2.9,0.5-5.7,0.8-8.6
			c1.6-15.1,2.3-30.1-3.4-44.7c-1.3-3.2-2-6.6-3.4-9.8c-1.8-4.1-3.6-8.1-8.7-9.5c-5.3-1.5-8.5-5.3-8.9-10.8
			c-0.6-7.2-4.9-12.6-9.1-18c-4.8-6.2-10.5-11.3-18.8-11.8c-4.6-0.3-9.3-0.2-13.8,0.2c-12.8,1-21,8.2-25.3,19.9
			c-1.7,4.6-2.6,9.5-3.6,14.4c-0.6,3.3-1.9,5.2-5.4,6.2c-3.9,1.1-8,2.9-9.9,6.9c-4.9,9.9-6.5,20.5-4.8,31.5c0.6,4,2.6,7.3,5.3,10.5
			c-1-9.7,0.3-19.1,3.7-28.1c7.9-0.7,14.9-6.4,23.5-3.7c-0.6-3-1.1-5.3-1.5-7.6c0.4-0.1,0.7-0.3,1.1-0.4c2.2,2.5,4.4,5.1,6.4,7.4
			c4.1-1.9,7.7-3.4,11.3-5.2c0.8-0.4,1.6-1.3,1.7-2.2c0.7-3.6,2.4-7.2,0-11c-1.7-2.6-2.4-5.8-3.5-8.8c-0.3-0.9-0.3-2-0.6-4
			c1.3,1.2,1.9,1.5,2.2,2c1.2,2.4,2.3,4.8,3.3,7.2c2.5,5.9,4.1,6.8,10.4,7.1c3.1,0.1,6.2,0.9,9.1,1.7c1.8,0.5,3.5,1.7,5.8,2.8
			c1.6-5.4-2.9-10-1-15c0.5,0.5,1.1,0.9,1.3,1.5c2.5,4.7,4.1,9.8,4,15.2c-0.1,4.3,0.9,7.8,5,10.1c0.8,0.4,1.3,2,1.5,3.1
			c0.5,4.2,5.6,10.5,8.9,11.4c1,3.2,1.9,6,3,9.5c2-3.2-0.1-7.1,3.9-9.1c0.9,4.5,1.6,8.5,2.5,12.9c-3.1,3.4-2.8,5.7,1.7,7.8
			c2.1,1,2,2.2,1.3,4c-0.5,1.3-1,2.9-0.7,4.1C153.9,252.9,155.2,256.5,156.4,260.1z M41.7,305.5c6.1-5.5,6.5-7.5,3-13
			c-2.3-3.6-6.3-3.5-9.8-3.6c-13-0.4-22.4,8.8-27,20c-1.5,3.6-2.6,8-1.7,11.6c2.5,10.3,7.6,19,17.7,24.1c3.8,1.9,7.2,4.3,10.9,6.5
			c-1.4,0.9-2.7,0.7-3.9,1c-1.2,0.3-2.6,0.8-3.3,1.7c-1.8,2.3-1.3,12.6,0.6,14.9c5.6,6.7,12,12.5,20.4,15.4
			c8.5,2.9,17.5,4.4,26.4,4.3c12.7-0.2,24.7-3.6,35.2-10.9c9.2-6.5,16.1-15.3,21.4-25.1c1.4-2.6,1.8-5.8,2.7-8.7
			c-0.4-0.3-0.7-0.6-1.1-1c-2.2,1-4.5,1.7-6.5,3c-4.4,2.8-8.6,5.8-14.1,9.5c1.3,0.7,2.5,1.3,3.9,2c-4.6,0.8-9.6-0.9-13.4,2.8
			c0.8,1.1,1.4,2,1.8,2.5c-1.9,2.5-3.5,4.6-5.5,7.2c-0.3-1.9-0.6-3.3-1-5.4c-5.8,1.4-11.3,2.7-16.7,4.1c-2.5,0.6-5.3,2.5-7.5,1.8
			c-4.9-1.4-7.9,0.3-9.8,3.7c-2.5-1-4.6-2.2-6.8-2.5c-3.1-0.4-6.3-0.1-9.5-0.1c-0.1-0.4-0.2-0.7-0.3-1.1c1.7-0.8,3.7-2.6,5-2.1
			c4.3,1.4,7.3-0.4,10.7-3.2c2.1,3.9,4.4,0.5,6.7,0.4c3.2-0.1,6.7-0.5,9.5-1.9c2.8-1.3,5.7-3.6,4.8-7.7c-4.7-1.3-5.5-1-7.1,3.2
			c-0.7,1.9-1.6,3.2-4.1,2.7c-0.2-1.1-0.4-2.1-0.7-3.8c-1.7,0.3-3.6,0.1-4.6,1c-1.2,1-1.9,3.2-3.8,2.1c-1.3-0.8-1.9-2.6-3.4-4.8
			c5.6-0.6,6.8-3.7,6.7-8c-1-0.4-1.8-0.9-2.8-1c-2.9-0.6-6.5-0.2-8.4-1.8c-3.4-2.8-7.1-2.3-10.8-2.7c-2.6-0.3-5.1-0.6-7.2-4.1
			c4,0,7.2,0,10.5,0c-0.7-1.2-1.5-1.5-2.2-1.8c-4.4-1.9-4.4-2.1-4.4-7.3c0-1-1-2-1.7-3.3c-1.4,1.6-2.3,2.7-3.7,4.3
			c-2-7.1-7.8-7.8-13-8.6c-3.7-0.6-6-2.7-8.7-5c4.8,0.9,9.7,1.7,15.4,2.7c0.2-2.1,0.1-4.3,0.7-6.3c0.7-2.2,2-4.2,3.3-6.5
			c-1.8-0.5-3.1-0.9-4.9-1.5c0.5-1.5,0.9-2.8,1.3-4.2C34.7,302.8,38,304.1,41.7,305.5z M286.6,446.3c4.2,1,6.6-0.6,9.1-1.6
			c6.1-2.5,11.8-5.8,18.4-7c15-2.9,29.7-2.2,44.1,3c7.9,2.9,15.5,6.3,22.6,11.2c5.3,3.6,9.7,7.9,14.3,12.2
			c6.1,5.6,9.4,13.2,14.2,19.7c2.4,3.3,3.8,7.3,5.7,11c0.8,1.5,1.8,2.9,2.8,4.4c0.4-0.1,0.8-0.1,1.3-0.2c1.6-8.7,4.4-17.3,3.6-26.2
			c-0.6-6.2-1.9-12.5-3.8-18.4c-1.5-4.6-4.1-9-6.7-13.2c-2.9-4.7-6.1-9.4-9.9-13.4c-3.2-3.4-7.4-6-11.3-8.8
			c-7.4-5.4-15.6-8.5-24.8-9c-3.6-0.2-7.3-0.1-10.9-0.6c-11.2-1.5-21.6-0.1-31.3,6.1c-3.6,2.3-7.9,3.4-11.6,5.5
			c-3.3,1.8-6.3,4.1-9.4,6.3c-1.2,0.8-2.2,2-3.1,3.1C295.4,435.4,291.3,440.5,286.6,446.3z M117.6,214.7c0.2-0.3,0.5-0.6,0.7-0.8
			c7.5,2.5,10,11.1,17.4,15c-4.3-7.6-7.8-14.8-12.3-21.5c-2.7-4-6.5-7.4-10.2-10.7c-2.5-2.3-5.7-1.7-8.3,0.1c-2.1,1.4-3,3.7-2.6,6.4
			c1.2,8.7,4.5,16.6,9.6,23.7c3.5,4.8,3.4,5.5,0.3,10.6c-7.5,12.2-6.7,25-1.5,37.6c2.5,6.1,5.9,11.9,9.5,17.4
			c4.2,6.4,8.9,12.4,13.6,18.4c2.6,3.3,5.7,6.3,8.6,9.4c4.1-2.9,6.2-9.5,4-14.3c-2.9-6.5-6.4-12.6-9.8-18.9
			c-1.5-2.8-3.2-5.5-4.9-8.2c0.3-0.2,0.6-0.4,0.9-0.5c6.9,6.3,10.8,14.8,15.3,22.9c1.5-5.6,2.3-11,3.4-16.3c1.2-6-2.1-10.8-3.9-15
			c1.1-2.3,2.5-3.9,2.4-5.3c-0.4-6.4-2.2-12.6-6.1-17.7c-7.3-9.5-15-18.6-22.5-27.9C120.1,217.7,118.8,216.2,117.6,214.7z
			 M107.7,312.4c12.7,2.3,17.9,13.4,25.2,21.9c6.2-3.8,6.4-4.4,3.9-10.5c-0.7-1.7-1.7-3.3-2.8-4.7c-5.2-6.7-11.3-12.6-18.1-17.7
			c-9-6.8-18.7-9-29.4-5.3c-4.6,1.6-7.9,4.6-9.2,9.7c-1.1,4.6-2.6,5.1-6.7,2.8c-1-0.6-2-1.3-2.9-1.9c-8-5.4-16.7-3.9-22,4.1
			c-0.8,1.3-1.4,3.2-1.1,4.6c2.2,9.6,7.5,17.3,15.9,22.4c5.5,3.4,11.3,6.3,17.4,8.5c5.2,1.9,10.9,2.8,16.4,3.5c3.4,0.5,7,0,10.4-0.3
			c5.6-0.5,10.4-3.1,15.7-6.7c-17.9,0.3-42.1-6.8-47.2-13.8c8.3,3.1,16,6.6,24.1,9c8.2,2.5,16.7,2.6,25.3,0.6
			c-8.2-3.6-16.9-5.7-23.3-12.3c9.4,1.7,17.5,8,28.7,7.8C121.8,325.3,116,317.9,107.7,312.4z M376.2,481.7c0.1,0.3,0.3,0.7,0.4,1
			c-4.5,2.2-5.2,5.9-5.4,10.4c-0.1,3.2-1.4,6.5-2.8,9.4c-3.1,6.4-6.6,12.6-10,18.8c-0.6,1-1.7,1.7-2.9,2.9c-1.4-1.7-2.6-2.9-3.5-4.2
			c-6.6-9.7-9.7-20.6-11.2-32c-0.1-1,0.1-2.2-0.4-2.9c-2-3-1-5.7,0.7-8.3c0.7-1,1.2-2.2,1.8-3.2c-0.2-0.3-0.4-0.6-0.7-0.9
			c-1.9,0.9-3.7,1.7-6.3,2.9c0-1.5-0.3-3.5,0.1-3.7c2.4-1,5-1.6,7.5-2.3c0.2,0.3,0.4,0.6,0.6,0.9c0.8-2,1.6-4.1,2.4-6
			c-3.4-3.1-6.1,1.2-8.9-0.3c-0.5-1.3-1.1-2.6-1.7-4c-2.5,0-4.7,0-7.1,0c-0.1-1.7-0.1-3.3-0.2-4.8c-2.2,2.1-3.1,4.9-4.9,6.7
			c-4.1,4-4.9,9.5-5.7,14.4c-1,5.7-0.2,11.8,0.6,17.6c0.7,4.9,2.7,9.6,4.3,14.3c2,6.1,6.3,10.8,10.2,15.7c3.5,4.4,7.2,6.9,12.8,7.2
			c6.1,0.3,12.2,1.3,18.3,1.8c2.8,0.2,5.2-0.9,7-3.1c3-3.5,6.1-7,9.1-10.6c9.5-11.8,14.2-25.3,14.4-40.4c0-0.8-0.5-1.6-0.9-2.6
			c-1.4,1.6-2.4,2.9-3.4,4.1c-0.4-0.2-0.8-0.4-1.3-0.6c0.5-2.8,1.4-5.7,1.3-8.5c0-1.7-1.2-3.6-2.4-5c-0.6-0.7-2.4-0.4-2.6-0.4
			c-1.3,3.8-2.2,6.8-3.4,10.3c-2.1-1.1-3.4-1.9-4.8-2.6c-0.2-0.5-0.5-0.9-0.7-1.4c1.7-0.9,3.5-1.9,5.7-3.1c-2.1-2-3.6-3-4.5-4.4
			c-0.9-1.4-1-3.4-1.7-5c-0.5-1.2-1.4-2.3-2.2-3.4c-1.2-1.7-2.5-3.1-4.8-1.9c0.5,4,1.4,6.1,3.9,10.6c0.3,0.6,0.4,1.7,0,2.3
			c-2.3,4.3-1.1,8.7-0.5,13.2C373.8,481.1,375,481.4,376.2,481.7z M52.6,391c-1.2,4.5-2.9,8.6-3.1,12.7
			c-0.9,12.7,5.4,21.9,15.8,28.5c2.8,1.8,6.4,2.4,9.5,3.8c8.2,3.9,16.5,6,25.8,6c8.8,0,14.2-3.9,18.7-11c-4-2.5-7.7-4.9-11.4-7.3
			c-4.2,1.2-7.1,6.5-13,4c7.2-4.1,9.8-7,9.3-10.3c-0.5-3.2-3.4-6.2-7.2-7.2c0.7-1,1.3-1.8,2.2-3c-1.1-0.9-2.1-1.7-3.3-2.6
			c-5.1,5.1-7.3,12.5-15.3,14.3c0.5-0.8,0.8-1.3,1.1-1.8c3.4-5.5,7-10.9,10.2-16.5c1.4-2.4,0.7-5.9,4.8-6.9
			c-6.7-2.2-14.4,4.2-15.9,11.4c-2.6,0.5-5.1,1-8.2,1.6c2.5-4.8,8.2-7.1,7.4-12.8c-4-2.3-4.3,1.5-6.1,3.7c-1.2-1.7-2.2-3-3.3-4.5
			c-1.7,1-3.2,1.9-4.4,2.7C62.6,391,57.7,392.4,52.6,391z M378.8,103.5c1.3-2.3,2.4-4.6,3.8-6.8c3.7-6.1,4.2-13.2,5.6-20
			c1-4.5,1.9-9.2,2-13.8c0-5-0.7-10.1-1.7-15.1c-1-5-1.6-10.2-5.1-14.4c-2.1-2.5-3.4-2.8-5.7-0.6c-2.3,2.2-4.6,4.5-6.1,7.2
			c-4.4,7.6-9.3,14.9-13.3,22.9c-5,10-7.1,20.4-9.1,31.1c-0.4,2.4-0.7,4.8-1.3,7.2c-1.5,7-0.3,13.9,0.6,20.8
			c0.9,7.1,1.8,14.2,2.9,22.4c2.4-2.8,4.4-4.7,5.9-7c1.3-2.1,2.2-4.6-0.3-6.8c-0.5-0.4-1-1.2-0.9-1.7c0.1-1.2,0.6-2.3,1-3.4
			c1.1,0.5,2.2,0.8,3.1,1.4c0.5,0.4,0.7,1.4,1.1,2.3c2.8-1.4,4.5-2.7,4.4-6.1c-0.1-2,1.5-4.1,2.6-6c0.6-1.1,1.8-2,2.7-2.9
			c-0.3-0.3-0.6-0.6-0.9-0.9c-1.6,1.5-3.5,2.8-4.8,4.6c-1.6,2.2-3.1,1.7-4.5,0.3c-0.8-0.8-1.1-2.2-1.9-3.9c2.2-0.6,4-1.1,5.6-1.7
			c0.8-0.3,1.6-0.9,2.2-1.6c2.7-3.1,0.5-4.8-0.9-6.7c-0.3-3.2-0.6-6.3-1-9.5c0.9-1,1.9-2.2,3-3.3c-0.2-0.1-0.4-0.3-0.7-0.4
			c-3.1,0.9-6.3,1.9-9.7,2.9c0.9-7.4,1.6-8.1,5.4-5.5c1.5-1.2,3-2.3,4.3-3.3c-0.1-4-5.9-0.2-5.6-5.3c1.9,0.6,3.7,0.8,5.1,1.6
			c4.1,2.2,3.9,2.2,7-1.3c0.9-1.1,2.8-1.9,4.2-1.8c1.9,0.1,2,1.9,2.2,3.7c0.5,4.2-3.5,5.7-4.7,8.9c1.1,1.5,2.4,2.8,3.2,4.4
			c0.5,0.9,0.6,2.4,0.1,3.1c-0.5,0.7-2,1-3,1c-1.4,0-2.9-0.8-4.3-0.7c-2.7,0.1-3.1,1.7-2.1,4.1C372.5,100.3,373.8,100.3,378.8,103.5
			z M287.5,459.3c-0.5-0.2-0.9-0.3-1.4-0.5c-0.7,0.9-2,1.8-2.1,2.9c-0.6,4.1-1.3,8.1,0.3,12.2c1.3,3.2,1.8,6.6,3,9.8
			c2.6,7,4.6,14.3,8.2,20.7c4.4,7.6,10.7,14,15.3,21.4c4.7,7.5,12.7,10.9,18.5,17c3.8,3.9,9.4,6.1,14.4,8.7c3.4,1.7,7,3.3,10.7,4
			c7.8,1.4,15.6,2.4,23.7,2.1c9.4-0.3,17.6-3.2,25-8.3c2.4-1.6,4.1-4.7,5.4-7.4c1.6-3.6,2.6-7.5,3.7-11.3c0.7-2.6,2.2-5.2,0.9-8.4
			c-1.4,0.5-2.6,0.9-3.8,1.5c-11.4,5.5-23.2,9.7-35.3,13.4c-4.1,1.2-7.9,2.2-12.1,0.7c-1.2-0.4-2.6,0-3.9,0
			c-14,0.2-27.2-1.2-38.6-11.2c-9.3-8.2-16.7-17.6-21.9-28.6c-3.2-6.8-5.1-14.3-7.4-21.5c-0.7-2.2-0.8-4.5-1.2-6.8
			C288.5,466.1,288,462.7,287.5,459.3z M100.6,255.4c0.4-2.8,0.6-5.4,1.1-7.9c0.7-3.5-0.4-6.2-3.4-8.1c-8.2-5.3-17.1-7-26.5-4
			c-1.4,0.4-2.8,1.8-3.7,3.1c-4.6,6.8-5,14.4-2.7,22c2.2,7.2,4.7,14.4,7.9,21.3c5.8,12.5,5.6,11.7,18.7,7.5c0.1,0,0.2-0.3,0.4-0.7
			c-4.4-4.7-8.9-9.5-13.8-14.8c3.4,0.5,6,0.9,9,1.3c-0.8,3.6,2.5,5.6,5.2,7.9c1.9,1.7,4.1,3.2,6.6,5.2c1.5-1.3,3.6-3.2,6.4-5.7
			c-8.6-8.7-16.8-17.1-25-25.5c0.2-0.3,0.4-0.6,0.6-0.9c1.5,0.8,3.1,1.5,4.6,2.3c1,0.5,1.9,1.4,2.9,1.8c1.1,0.5,7.2,3.5,7.9,3.9
			c1.3,0.7,1.6,1.4,1.4,3.1c-0.3,2.7,1.4,4.4,4.5,5.1c-0.5-11.3-7-18.1-16-23.9C93.4,247.3,96,252.7,100.6,255.4z M76.2,475
			c1.2-1.8,2.2-4.4,3-4.3c4.8,0.5,6.6-4.5,10.6-5.2c1.7-0.3,3.5-1.2,5-2.2c0.9-0.6,1.5-1.9,2.2-2.9c-1-0.5-1.9-1-2.9-1.3
			c-0.6-0.2-1.4-0.1-2,0.1c-5.8,1.8-11.8,3.2-17.4,5.6c-6.1,2.6-12.1,5.7-17.4,9.5c-6.6,4.7-13.2,9.7-18.6,15.6
			c-6,6.6-10.8,14.2-15.6,21.7c-2.8,4.4-5,9.3-5.1,14.9c-0.1,3,1.3,3.8,3.7,4.1c1,0.1,2-0.2,2.9-0.4c11.2-2.5,21.4-7.7,31.7-12.6
			c2.3-1.1,4.4-3,3.5-6.2c-3.6,0.5-7.2,0.4-10.3,1.6c-5.2,2.1-9.9,5.1-14.9,7.6c-2,1-3.9,0.7-5-1.6c-1.1-2.1-1.8-3.9,1-5.4
			c1.1-0.6,1.7-2.2,2.1-3.5c0.5-1.5,0.6-3.1,1-5.1c1.2,0.6,1.9,1,2.6,1.3c0.8,0.4,1.6,0.8,2.8,1.5c0.3-2.9-0.2-5.8,0.9-7.6
			c1.9-3.1,4.2,1.5,7.2,0.3c-0.4-2.7-0.8-5.4-1.2-8.2c5.2,2.1,5.4,6.2,4.5,10.9c4.4-0.1,2.1-4.7,5.4-5.4c-2-2.8-3.5-5-5.2-7.3
			c0.8-1.5,1.8-3.3,2.9-5.1c1,0,2.1,0.3,2.9-0.1c3.8-2,6.7-5.7,11.4-6.2c0.2,0,0.5-0.4,0.7-0.7C70.1,474.9,72.9,474.1,76.2,475z
			 M330.1,106.6c3.1,9.8,4.2,20,12,27.8c2.3-4,2.3-4.9,1.5-8.5c-1-4.5-1.6-9.1-2.7-13.6c-1.3-5.3-2.2-10.9-4.5-15.7
			c-3.4-7.1-6.7-14.3-11.4-20.8c-3-4.1-6.3-7.5-9.7-11c-0.9-0.9-2.3-1.5-3.7-2.4c-2,4.1-2.7,7.8-2.2,11.6c0.4,3.4,1,6.8,1.7,10.2
			c1.2,5.7,1.6,12,8.9,14.4c1.3-1.8,2.6-4.1,6.4-3.9c-2.2,3.2-4,5.9-6.3,9.3c3.9,0,5.3,2,6.3,4.8
			C327.7,107.8,328.9,107.2,330.1,106.6z M64.1,561.2c0.3-0.3,0.6-0.6,0.8-0.9c-0.3-0.5-0.6-1-0.9-1.4c-2-3-5.1-5.1-4.8-9.5
			c0.5-6.7,1.7-13.2,3.1-19.7c0.2-0.8,0.8-1.8,0.5-2.4c-0.4-0.9-1.3-1.9-2.3-2.3c-0.5-0.2-1.6,0.8-2.1,1.5c-0.5,0.6-0.5,1.6-0.7,2.4
			c-2.7,13.4-2.8,27.1-1.9,40.6c0.8,13,3.9,25.9,6.1,38.7c0.3,1.7,1.6,3.2,2.6,5.2c2.6-5,4.9-9.2,7.1-13.4c0.3-0.6,0.2-1.3,0.3-1.9
			c3.1-12.5,4.3-25.2,3.3-38c-0.5-6.2-1.6-12.4-2.8-18.6c-0.4-2.1-1.9-4.1-3.1-6.6c-4.7,6.5,0.5,13.4-2.2,18.8
			c1.4,3.3,2.7,6.3,4.2,9.6c-0.8,1-1.6,2.1-2.5,3.2c0.4,0.1,0.7,0.2,1.1,0.3c-0.2,2.4-0.4,4.9-0.5,7.3c0,0.9-0.1,2,0.2,2.8
			c0.9,2.7-0.3,3.7-3,3.7c4.6,4.2,3.1,11.4-2.7,13.9c-3-4.1-1.5-8.3,0.3-12.3c-1.9-0.3-3.4-0.5-4.9-0.7c0.6-1.6,1.2-3.1,1.9-4.7
			c0.2-0.4,0.3-0.9,0.5-1.3c-1.3-0.8-2.5-1.6-2.6-1.7c0-5.8,0-10.7,0-16.3C61.3,559.3,62.7,560.3,64.1,561.2z M308.6,501.3
			c0.4-0.1,0.9-0.2,1.3-0.3c-0.3-3.9-0.1-7.9-0.8-11.7c-1.3-7-1-13.8,1.5-20.5c1.4-3.7,2.5-7.6,4.1-11.2c1.3-2.9,3-5.8,4.9-8.4
			c1.9-2.7,4.4-5,6.5-7.3c-5.6-1.1-13.8,0.5-20.1,3.9c-2,1.1-4.1,2.3-6.2,3.1c-3.7,1.4-5.4,4.5-5.2,7.8c0.5,6.9,1.4,13.9,3,20.6
			c1.3,5.6,3.9,10.9,5.5,16.4C304,497,306,499.2,308.6,501.3z M418,539.5c0.4,0.4,0.8,0.8,1.1,1.1c3.8-2.1,7.8-4,11.5-6.4
			c3.5-2.3,5.6-5.7,6.4-10.2c1.9-10.6-0.2-20.8-2.9-30.8c-0.5-2-2.2-3.7-3.9-6.4C425.9,505.1,422,522.3,418,539.5z M482.8,700.3
			c0.6-4.3,0.3-6.2-2.3-8.7c-2.4-2.3-4.2-5.4-7.2-7.3c-0.4-0.2-0.5-0.8-0.8-1.3c-0.9-1.5-1.9-3-2.7-4.6c-0.5-1-1-2.1-1.1-3.2
			c-0.5-3.6-0.9-7.2-1.4-10.8c-0.1-0.5-0.2-1-0.5-1.4c-2-2.5-1.5-5.2-0.1-7.5c1.8-2.9,0.6-5.5-0.4-8c-0.7-2.1-2.1-4-3.4-5.8
			c-0.5-0.7-1.7-0.9-2.6-1.2c-1.2-0.4-2.5-0.7-3.7-1.2c-3.5-1.3-12.8,2.5-14.5,5.8c-3.2,6.1-2.4,11.8,1.7,17.1
			c2,2.6,4.6,4.6,8.6,4.2c-0.7-2.7-1.1-5.1-1.9-7.4c-0.3-1.1-1.4-1.9-1.8-2.9c-0.8-2-1.6-4-1.9-6.1c-0.3-2.3,0.8-4.2,3.1-5.1
			c4.2-1.6,8.4-0.3,10.8,3.6c2.7,4.4,2.7,9.2,1.3,14c-1.1,3.7-1.2,7.1,0,10.8c2.6,7.8,6.6,14.9,12.4,20.7
			C476.7,696.3,479.4,697.8,482.8,700.3z M474.4,759.6c-1.6-0.2-4.7-1.5-5.6-0.6c-2.5,2.5-4.1,5.9-6.3,9.2c-2.5-1.1-2.6-3.4-1.4-5.6
			c2.2-4.1,4.8-8,7.3-12.1c-3.4-3.9-4.3-4-8.2-0.5c-2-0.2-4.3-1.2-5.2-0.5c-1.1,0.9-0.9,3.2-1.5,5.7c-0.8-3.9-7-2.5-5.2-7.5
			c-5.8-0.4-5.8-0.3-11.1,2.5c-0.8,0.4-1.8,0.4-2.8,0.4c-2.5,0-3.4,1.1-2,3.1c1.2,1.7,2.7,3.4,4.4,4.6c7.7,5.5,16.1,9.4,25.4,10.9
			c4.2,0.7,8.7,0.3,13,0.2c2.8,0,2.3-1.9,2.1-3.9c-2.4,0.3-5.1,1.3-5.6-1.8C472,762.7,473.5,761.3,474.4,759.6z M73.3,217.9
			c1.5-1,2.7-1.9,4-2.8c-1.2-1.3-2.2-2.8-3.6-3.7c-4.3-2.6-12-0.4-15.8,3.9c-5.5,6.3-4.8,16.6,0,25.2c5-1.3-0.7-4.2,0.9-6.3
			c3.7,1.9,5.7-1,8-3c2-1.7,1.7-3.4-0.1-5c-1.4-1.2-2.7-2.5-4-3.8c4.2-0.5,6.4,2,8.8,4.1c1.9,1.6,3.7,2.8,6.6,0.9
			C76.5,224.3,74.9,221.2,73.3,217.9z M54.9,248.7c-2.1-3.3-4.6-5.3-8.1-3.9c-6.6,2.7-12.2,6.8-14.2,14.2
			c-1.8,6.7-0.6,13.2,1.4,19.6c1.4,4.7,2.9,5.1,7.8,3.5c1.5-3.3-0.4-5.2-4.7-7.8c1.9-1,3.1-1.7,4.3-2.2c1.8-0.7,4.5-1.1,3.3-3.7
			c-1.3-3-3.3,0.6-5.6,0.2c1.8-3-1.4-7.6,4.2-9.2c1.5,1.8,2.8,4.2,5.7,2.4c1.5-0.9,3.6-1.3,2.7-3.5c-2.9-0.5-5.4-1-8-1.5
			c0.3-2.1,0.5-3.5,0.8-5.4C49.2,255.5,51.7,251.4,54.9,248.7z M40.7,448.9c1.2-0.4,2.3-0.9,3.6-1.2c3.5-0.7,7-1.4,10.6-2
			c1-0.2,2.1,0.4,3.2,0.4c3.7-0.1,7.7,0.8,10.9-2.4c-5.8-5.8-29.2-4.1-36.7,7.4c9.1,10.7,33.2,15.6,40,7.6c-2.9-0.1-5.4-0.3-8.3-0.4
			c-0.6-1.3-1.4-2.8-2.3-4.8c-1.1,1.5-1.9,2.7-2.9,4.1c-4.7-1-9.5-2-14.3-3.2C41.7,453.6,40.3,452,40.7,448.9z M65.1,284.2
			c-0.3-3.8-2.8-6.4-1.1-10.6c1.8-4.1-2.2-6.9-6.6-5.4c-5.1,1.7-9.4,7.7-8.9,13c0.4,4.1,1.5,8.1,2.8,12.1c1.7,5.3,2.5,5.5,7.7,3.3
			c0.7-2.2,1.4-4.2,2.2-6.6c-1.9-0.9-3.9-1.9-6.3-3.1c1-1.5,1.9-2.9,2.8-4.3C61.7,284.8,61.7,284.8,65.1,284.2z M412.7,514.1
			c-2.4-5.6-2-11.8-6.7-16.2c-2.9,2.6-5,4.9-5.8,8.7c-0.8,3.4-3,6.5-4.7,9.7c-1.4,2.5-3,4.9-4.8,8
			C399.5,523.6,405.6,518.5,412.7,514.1z M94.8,207.1c-4.7-0.5-7.6,1.6-8.5,5.8c-0.9,4-1.2,8.1-1.4,12.2c-0.1,1,1,2.7,1.9,3.1
			c3.1,1.4,6.5,1.2,9.9,1c-0.2-4.1-5.5-5.1-4.5-10.2c2.4,1.4,4.3,2.5,6.1,3.6C100.5,216.4,98.9,211.3,94.8,207.1z M468.5,167
			c1-2.9-0.5-4.3-2.3-4.3c-4.2,0-8.6,1.7-10.6,4.9c-1.9,3-4.2,2.4-6,2.2c-2.5-0.3-4.3-2.4-4.5-5.3c-0.1-1.1,0.2-2.2,0.3-3.2
			c-0.3-0.2-0.7-0.3-1-0.5c-1.2,2-3.5,4.2-3.3,6.1c0.3,2.3,2.5,4.5,4.2,6.5c0.5,0.6,2,0.6,2.9,0.4c4.2-0.9,8.3-1.9,12.8-2.9
			C464.1,163.5,464.1,163.5,468.5,167z M316.6,562.3c-2.4-0.1-4.2-0.2-6.4-0.4c0,2.7,0.8,5.6-0.3,7.3c-0.8,1.3-4.1,1.1-6.5,1.6
			c1.1,1.8,1.3,4.2,4.4,3.7c5.3-0.7,7.9-4,8.5-8.7c1.4-0.5,2.4-0.8,3.4-1.2c-0.2-2.3-0.2-4.2-0.5-6.2c-0.1-1-0.5-2.8-1-2.9
			c-1.2-0.2-2.5,0.4-3.9,0.8C315.2,558.6,315.8,560.1,316.6,562.3z M469.5,193c-1.7-3.3-3.1-6.2-4.7-9c-1.6-2.9-3-1.5-4.5,0.6
			c4.6,1.8,3.5,5.4,3,9.3C465.5,193.6,467.5,193.3,469.5,193z M226.7,594.7c-1-5.3-3.4-6.2-9.3-3.6
			C218.9,595.3,218.9,595.3,226.7,594.7z M456.1,185c0.7-2.9,1.2-5.5,1.9-8.5c-3.6,0.1-6,3.9-10,2.2c0.4,1.3,0.9,2.5,1.3,3.9
			C453.3,180.3,453.3,180.3,456.1,185z"/>
		<path d="M426.6,224c-0.5-2.4,2.9-5,0-7.6c1.1,0.1,2.2,0.2,3.2,0.3c-0.2,5.1,0.8,5.6,9.4,4.6c-0.2-1.5-0.5-3-0.7-4.4
			c-2.2,0.4-3.8,0.7-5.9,1c1.6-3.8,1.7-3.9,14.6-7.8c-0.5-1-1.1-2-1.4-3c-1-3,2-6.9,5.1-6.8c0.7,0,2.1,0.8,2.1,0.9
			c-0.8,3.2,3.6,5.6,1.3,9c-0.6,0.9-0.5,2.2-0.5,2.6c-3.1,0.7-5.7,1.7-8.3,1.8c-2.9,0.2-3.4,1.8-4,4.1c-0.6,2.3-1.8,4.5-3.2,6.4
			c-0.5,0.7-2.4,0.9-3.6,0.7C432.1,225.5,429.4,224.7,426.6,224z"/>
		<path d="M441.8,203c0,2-0.9,3.4-2.9,4.2c-1.3,0.5-2.8,1.2-3.7,2.3c-1.8,2.3-3.6,1.3-5.3,0.4c-1.8-1-3.5-2.4-5.1-3.7
			c-0.4-0.3-0.8-1.3-0.6-1.6c1.6-2.4-1.4-2.3-2.3-4c5.5-3.8,10.5-7.6,17.8-5.7c2.2,0.6,4.9-1.1,7.4-1.6c0.9-0.2,1.9-0.1,2.7,0.2
			c0.2,0.1,0.3,1.8-0.1,2.1c-2.2,2-4.8,3.7-5.8,6.8c-0.1,0.4-1.5,0.5-2.3,0.7c-1.3-2.7-3.7-3.5-6.1-2.6c-1.9,0.7-3.3,0.8-5.1,0.2
			c-0.8-0.3-2,0.7-3.8,1.3c2.1,2.2,3.7,3.8,5.7,5.9c0.4-1.4,0.7-2.4,0.9-3.1C436.3,204.1,439.1,203.6,441.8,203z"/>
		<path d="M440.9,249.8c-0.7-0.2-1.4-0.4-3.1-0.8c1.9-0.7,2.9-1.1,4.2-1.6c-0.4-1.5-0.7-2.9-1-4.1c0.3-0.4,0.4-0.9,0.6-0.9
			c2.2-0.4,3.7-1.5,4.5-3.9c1-2.7,2.4-2.8,4.4-1c1.5,1.4,3.2,2.6,5.3,4.3c-2.9,3.5-8.1-0.8-10.7,3.7c0,0.9,0,2.6,0,3.9
			c1.5,1.4,2.7,2.5,3.9,3.6c-1.4,1.4-2.9,2.7-4.3,4.1c-2.5,2.6,1.7,6.9-2.6,9.7c-2.1-1.2-3.5-2.8-3.4-5.4c0-0.8,0-1.7-0.3-2.4
			c-1.8-5.1-1.8-5,2.4-8.4C441.1,250.6,440.9,250.1,440.9,249.8z"/>
		<path d="M245.5,327.8c1.6,0.9,3.2,1.8,5,2.9c-7.2,6.7-8.5,6.6-12.3-0.6c1.1-2.2,4.5-3.9,2-7.5c-1.4,0.4-3,0.8-4.8,1.3
			c0.1,0.8,0.3,1.6,0.3,2.3c0,0.9,0.1,1.9-0.3,2.7c-0.1,0.3-1.7,0.3-2.1-0.1c-0.8-0.7-1.8-2.6-1.7-2.7c2.9-2.1-0.5-5.4,0.9-6.9
			c4.1-1.4,7.4-2.5,10.9-3.7c0.7,2-0.2,4.6,2.6,5.9C246.6,321.7,245.7,325.4,245.5,327.8z"/>
		<path d="M380.8,201.2c1.4,1.2,2.3,1.9,3.1,2.7c0.2,0.2,0.2,0.6,0.4,1.1c-3.8,1.2-6.1-0.9-8.2-3.8c-1.3,1-2.5,1.8-3.6,2.7
			c-0.7-1.5-1.4-2.9-2.3-4.8c0.9-1.4,2-3,3.6-5.4c1,3.6,0.9,7.4,5.7,5.8c0-1.5,0-3.2,0-5.2c4.1,0.4,5.4-3.8,8.5-6.1
			c1,3.9-0.7,5.8-2.8,8c3.3,1,5.3,3,5,6.3c-0.1,0.9-1.7,1.7-3.3,3.1c-0.2-3.1-0.3-4.9-0.5-7.9C384,199.2,382.6,200.1,380.8,201.2z"
			/>
		<path d="M362.9,211.1c0.9-0.5,2.1-1.2,3.2-1.9c-2.5-5.3-7.3-6.3-11.8-7.6c0.2-0.5,0.3-1,0.5-1.5c2.1,0,4.5,0.6,6.3-0.2
			c2-0.9,3.4-3,5.8-5.1c0,1.8,0.2,2.7,0,3.5c-0.9,4.3,1.1,7.9,2.6,11.6c1.1,2.7,1,5.4-1.1,6.6c-1.8,1-3.6-0.2-5-3.3
			C363.2,212.9,363.2,212.5,362.9,211.1z"/>
		<path d="M231.7,343.2c-0.4,1.5-0.7,2.5-1,3.6c2.2,3.1,5.1,4.2,9.5,2.8c-1.3,2.4-2.1,4.1-3.2,5.7c-1.1,1.5-3.4,2.2-4.1,0.4
			c-1.6-4.4-5.5-4.7-9.3-6.2c-0.1-1.8-0.2-3.6-0.4-7C226.4,346.5,228.4,342.6,231.7,343.2z"/>
		<path d="M451.7,322.5c1.1-0.8,2.1-1.4,3.4-2.3c-2.1,8.2-2.1,8.2-7.4,6.9c-1,1.4-2.1,3-3.3,4.8c-1.7-0.8-3.3-1.6-5.1-2.5
			c0.7-6.9,6.7-1.5,9.1-4.1c-1.6-8.9-0.9-10.8,4-9.4C451.7,317.9,448.5,319.7,451.7,322.5z"/>
		<path d="M467.1,252.1c-0.9,4.5-4.9,0.9-7.1,2.8c0.1,1.1,0.4,2.4,0.4,3.6c-0.1,2.3-2.3,4.2-4.3,3.8c-2.8-0.5-2.7-3-2.2-4.7
			c1-3.8,2.6-7.4,6.6-9C462.6,249.7,464.8,250.9,467.1,252.1z"/>
		<path d="M354.2,213.1c-2.2-0.3-4.5-0.5-6.7-1.1c-1-0.3-1.8-1.6-2.6-2.5c1-0.7,1.9-1.5,3-2.1c0.3-0.2,0.9,0.3,1.4,0.3
			c2.6,0.3,5.1,0.3,5.1-3.5C358,206.7,357.9,207.9,354.2,213.1z"/>
		<path d="M416.8,351c-2.7-1-5.3-2.8-8.5-1.7c-0.6,0.2-1.8-0.7-2.2-1.3c-0.3-0.4,0.3-1.9,0.7-2.1c3-1.1,6.1-2,9.2-2.8
			c0.3-0.1,0.8,0.5,1.3,0.8c-0.2,2.4-0.5,4.8-0.7,7.3L416.8,351z"/>
		<path d="M462.5,297.3c-0.5,1.9-0.8,3.8-1.5,5.6c-0.5,1.2-1.9,3-2.6,2.8c-1.6-0.4-3.6-1.4-4.3-2.7c-0.5-0.9,0.4-3.3,1.4-4.2
			c1.7-1.3,3.9-1.8,6-2.7C461.8,296.6,462.2,297,462.5,297.3z"/>
		<path d="M427.8,188c-2.9-0.8-4.2-2.9-2.7-5.3c1-1.7,2.5-2.9,2-5.3c-0.2-0.7,1.8-1.9,2.9-3c2.6,2.2,1.9,4.5,1.1,6.6
			C430,183.4,428.9,185.6,427.8,188z"/>
		<path d="M186,566.2c-1.5-0.2-2.8-0.4-4.4-0.7c-0.2,1-0.2,2-0.7,2.8c-0.4,0.7-1.3,1.1-2,1.7c-0.4-0.6-1.1-1.2-1.2-1.9
			c-0.2-1.9-0.1-3.8-0.1-5.2c4.1-0.9,7.4-1.7,11.8-2.6C188,562.8,187.1,564.3,186,566.2z"/>
		<path d="M425.6,169.4c-1.4,1-3.7,1.8-3.9,3c-0.4,1.9-0.6,3.1-3,3.2c-1.8-4.7-5.6-3.4-9.5-1.8c-0.1-0.5-0.1-1.1-0.2-1.6
			c1.4-0.8,2.9-2.5,4.1-2.3c3.2,0.5,5.8-0.5,8.4-1.9c0.9-0.5,2.2-0.1,3.4-0.1C425.1,168.5,425.4,168.9,425.6,169.4z"/>
		<path d="M413.8,330.9c0.9,0.4,2.7,1.2,4.9,2.2c-11.4,3.5-11.4,3.5-14.4,7.6c-2.1-0.4-2.8-2-1.6-3.6c1.2-1.6,3.2-2.7,5-3.8
			C409.2,332.4,411.1,331.9,413.8,330.9z"/>
		<path d="M268,510.5c-0.7,2-1.2,3.3-1.7,4.5c2.6,2.6,2.6,2.6,8,3.6c-2.6,0.7-5.2,1.6-7.8,2.2c-0.6,0.1-1.6-0.1-1.8-0.5
			c-0.6-1.2-1.4-2.6-1.3-3.8C264.2,511.2,264.3,511.2,268,510.5z"/>
		<path d="M202.2,586.3c-1-2.7-1.8-4.7-2.7-7c-1.5,0.2-3,0.5-4.8,0.7c-0.1-5.1,4.8-3,6.2-5.1c1.3,2.1,2.5,4.1,3.8,5.9
			C206.3,583.3,204.9,584.4,202.2,586.3z"/>
		<path d="M461.5,243.5c1.2-2.3,2.1-3.8,3.3-6.1c1.3,1.1,3,1.8,3.4,3c0.7,1.9,0.8,4.2,0.7,6.3c0,0.3-2.4,1.2-3.1,0.8
			C464.4,246.5,463.1,244.9,461.5,243.5z"/>
		<path d="M387.9,394c-0.5-0.8-1.5-1.7-1.4-2.5c0.2-1.8,0.4-4,1.4-5.3c0.8-0.9,3-0.5,5.2-0.7c-0.5,2.3-1,3.7-1,5
			c0.1,4.4,0.2,4.4-4.4,3.4L387.9,394z"/>
		<path d="M178.4,507.8c0.5,2.8,1.1,5.6,1.2,8.3c0,1-0.9,2.8-1.8,3c-1.6,0.4-3.4,0.1-5.1-0.1c-0.2,0-0.5-1.3-0.2-1.7
			c1.7-3.2,3.5-6.3,5.4-9.5C178,507.7,178.5,507.8,178.4,507.8z"/>
		<path d="M297.2,563.8c-1.1-2.2-1.7-3.3-2.5-4.8c-1.2,1.4-2.1,2.5-3.9,4.6c-0.7-1-1.2-1.9-2.4-3.8c4.3-1.8,7.9-3.3,11.5-4.7
			c0.3,0.3,0.6,0.5,0.9,0.8C299.8,558.2,298.7,560.5,297.2,563.8z"/>
		<path d="M415.4,325.6c1-0.4,2.3-1.4,3.1-1.2c3.8,1.2,5.1-0.8,5.6-4c0.1-0.6,0.3-1.3,0.5-1.9c0.3,0.3,0.6,0.6,0.9,0.9
			c0,2.1,0.5,4.4-0.2,6.2c-0.5,1.3-2.5,2.6-4,2.8c-1.8,0.2-3.7-0.8-5.6-1.3C415.6,326.6,415.5,326.1,415.4,325.6z"/>
		<path d="M470.5,294.7c-0.5-1.4-0.6-2.7-1.3-3.7c-0.7-1-1.8-1.8-3.2-3.1c3.2-0.6,6-1.2,9.2-1.8
			C475.3,290.2,474.6,293.1,470.5,294.7z"/>
		<path d="M227.1,357.6c1.3,0.3,2.3,0.2,3.1,0.7c0.5,0.3,0.5,1.3,0.7,2c-0.7,0.2-1.5,0.8-2.1,0.6c-1.8-0.6-3.5-1.5-5.3-2.2
			c-1.8-0.6-3.2-1.7-2.5-3.5c0.4-1.1,2-2.6,2.9-2.5c1.3,0.2,2.5,1.6,3.5,2.6C227.7,355.7,227.3,356.7,227.1,357.6z"/>
		<path d="M388.3,226.1c2.4-4.6,3.5-5,8-4.4c1.3,0.2,2.7-0.5,4.1-0.6c0.9-0.1,1.9,0,3.5,0c-4.5,4.5-4.5,4.5-10.1,3
			c-1.8,1.1-3.3,2-4.9,3C388.7,226.7,388.5,226.4,388.3,226.1z"/>
		<path d="M263.3,302.9c-0.8,2.6-1.3,4.1-1.8,5.8c1.5,1.1,2.9,2.2,5.3,4.1c-1.9,0.5-3.3,1.4-3.9,1c-2.1-1.4-4.9-2.5-4.9-5.7
			C258,305.2,259.9,304.2,263.3,302.9z"/>
		<path d="M381.5,339.9c-1.3,0.8-2.5,1.7-3.8,2.3c-0.8,0.4-1.7,0.3-2.6,0.4c0.1-1-0.2-2.2,0.3-3c2.1-3.2,5.7-2.5,8.9-2.8
			c0.5,0,1.5,1.1,1.4,1.6c-0.1,0.8-0.8,1.8-1.5,2.2c-0.6,0.4-1.6,0.1-2.4,0.1C381.7,340.4,381.6,340.1,381.5,339.9z"/>
		<path d="M403,202.5c4-0.3,6.1-5,10.8-4.7C410.3,205.5,407.1,207.1,403,202.5z"/>
		<path d="M286.3,551.3c3.3-1.7,5.5-2.8,8.3-4.2c0.6,1.1,2.1,2.9,1.8,3.2c-1.1,1.4-2.7,3.1-4.4,3.4
			C290.6,553.9,288.9,552.4,286.3,551.3z"/>
		<path d="M187.5,556.4c1.8-1.9,3.4-4,5.4-5.6c2.3-1.7,4.1,0.1,6.8,2.2C194.7,553.1,192.6,559.8,187.5,556.4z"/>
		<path d="M313.5,683.6c6.8-4.5,14.5-5.9,22.2-5.4c10.4,0.8,20.6,2.8,30.9,4.2c2.1,0.3,4.3,0.3,6.4,0.5c3.1,0.3,5.4,2.6,5,5.1
			c-0.4,2.2-3,3.4-6.1,2.8c-0.8-0.2-1.8-0.3-2.3-0.8c-5.4-5.3-12.4-5-19.2-6.3c-7.2-1.3-14.4-2.4-21.7-1.8
			C323.6,682.1,318.6,683,313.5,683.6z"/>
		<path d="M399.1,700.2c-2.3-0.1-4.9-2.5-4.9-4.7c0-2.3,2.5-4.2,5.2-4c2.5,0.2,4.5,2,4.6,4.3C404,698.3,401.8,700.2,399.1,700.2z"/>
		<path d="M392.2,657.5c3,0,5.4,2,5.5,4.6c0,2.2-2,4.1-4.2,4c-2.5-0.1-5.7-3.3-5.6-5.5C388.1,658,390.1,657.6,392.2,657.5z"/>
		<path d="M398.9,730.4c-2.7,0-4.3-1.4-4.3-3.7c0.1-2.3,3.1-5.1,5.3-5.1c1.7,0,3.9,2.5,4,4.4C404.1,728.4,401.8,730.3,398.9,730.4z"
			/>
		<path d="M423.7,725.7c-2.1-0.2-3.8-0.9-3.9-3.5c-0.1-2.4,1.5-4.1,3.9-4.2c2.3-0.1,4.4,1.7,4.4,3.8
			C428.2,723.7,426.1,725.6,423.7,725.7z"/>
		<path d="M433.9,687.6c-0.1,2.2-1.4,3.5-3.7,3.6c-2.4,0.1-4.6-2.1-4.5-4.3c0.1-2.3,1.8-2.9,3.8-3.1
			C432,683.6,433.8,685.1,433.9,687.6z"/>
		<path d="M448,716.7c-2.7,0-4.1-1.2-4-3.6c0.1-2.2,1.6-2.7,3.4-2.7c2.5-0.1,4.8,1.6,4.6,3.5C451.8,716.1,450.2,716.8,448,716.7z"/>
		<path d="M382.6,56.5c-1.5,1-3,2-5.3,3.6c2.6,1.6,4.3,2.6,6.1,3.6c-1,2.5-2.9,3.4-4.8,2.5c-1.6-0.8-2.6-2.7-4.2-4.5
			c-0.9,1.4-2.3,3.5-4.2,6.4c-0.5-3.1-0.8-5.2-1.3-8c2.2-1,4.5-2.1,7.1-3.3c-3.5-2.9-0.9-6.2,0.1-9.4c0.2-0.7,1.8-1.2,2.7-1.2
			c0.4,0,1.1,1.4,1.3,2.2c0.5,2.4,0.8,4.8,1.2,7.2C381.8,55.8,382.2,56.2,382.6,56.5z"/>
	</g>
</g>
</svg>
